<svg width="1876" height="639" viewBox="0 0 1876 639" fill="none" xmlns="http://www.w3.org/2000/svg">
<g clip-path="url(#clip0)">
<rect width="1876" height="639" fill="white"/>
<g clip-path="url(#clip1)">
<path d="M134.28 39H142.2V79.2C142.2 89.85 137.54 97.2 126.62 97.2C123.391 97.2489 120.177 96.7415 117.12 95.7V88C119.728 89.011 122.503 89.52 125.3 89.5C131.99 89.5 134.3 85.5 134.3 79.73L134.28 39Z" fill="#253858"/>
<path d="M156.63 35.91C157.336 35.8595 158.045 35.9614 158.709 36.2088C159.372 36.4563 159.975 36.8435 160.476 37.3443C160.976 37.845 161.364 38.4476 161.611 39.1111C161.859 39.7747 161.961 40.4836 161.91 41.19C161.91 42.5903 161.354 43.9333 160.364 44.9235C159.373 45.9137 158.03 46.47 156.63 46.47C155.23 46.47 153.887 45.9137 152.896 44.9235C151.906 43.9333 151.35 42.5903 151.35 41.19C151.299 40.4836 151.401 39.7747 151.649 39.1111C151.896 38.4476 152.284 37.845 152.784 37.3443C153.285 36.8435 153.888 36.4563 154.551 36.2088C155.215 35.9614 155.924 35.8595 156.63 35.91ZM152.76 52.81H160.33V96.81H152.76V52.81Z" fill="#253858"/>
<path d="M171.76 52.8H179.15V60.54C181.7 55.35 186.15 51.65 194.73 52.18V59.57C185.05 58.57 179.15 61.51 179.15 70.83V96.83H171.76V52.8Z" fill="#253858"/>
<path d="M230.19 88.88C227.37 94.69 222.09 97.68 215.32 97.68C203.62 97.68 197.72 87.74 197.72 74.8C197.72 62.39 203.88 51.92 216.2 51.92C222.62 51.92 227.55 54.82 230.2 60.54V52.8H237.77V96.8H230.2L230.19 88.88ZM217.34 90.64C224.12 90.64 230.19 86.33 230.19 76.56V73C230.19 63.23 224.65 58.92 218.19 58.92C209.65 58.92 205.25 64.55 205.25 74.76C205.29 85.36 209.51 90.64 217.35 90.64H217.34Z" fill="#253858"/>
<path d="M282.55 97.68C271.37 97.68 266.18 95.48 261.69 93.19V85.1C267.06 87.92 275.33 89.94 282.98 89.94C291.69 89.94 294.98 86.51 294.98 81.4C294.98 76.29 291.81 73.57 280.81 70.93C267.81 67.76 261.98 63.27 261.98 53.77C261.98 44.77 268.84 38.11 282.31 38.11C290.67 38.11 296.04 40.11 300 42.33V50.25C294.495 47.2166 288.284 45.6982 282 45.85C274.43 45.85 269.94 48.49 269.94 53.77C269.94 58.52 273.64 60.9 283.84 63.45C296.07 66.53 302.94 70.45 302.94 80.87C302.88 90.9 296.9 97.68 282.55 97.68Z" fill="#253858"/>
<path d="M309.57 74.71C309.57 61.51 317.31 51.92 330.51 51.92C343.71 51.92 351.28 61.51 351.28 74.71C351.28 87.91 343.62 97.71 330.51 97.71C317.4 97.71 309.57 87.91 309.57 74.71ZM316.96 74.71C316.96 83.07 321.1 90.64 330.51 90.64C339.92 90.64 343.89 83.07 343.89 74.71C343.89 66.35 339.84 59 330.51 59C321.18 59 317 66.35 317 74.71H316.96Z" fill="#253858"/>
<path d="M370.55 52.8H381.9V59.8H370.55V96.8H363.16V59.8H356V52.8H363.13V48C363.13 39.82 367.71 34.27 377.13 34.27C378.855 34.2604 380.572 34.4961 382.23 34.97V41.97C380.664 41.6723 379.074 41.5249 377.48 41.53C372.82 41.53 370.48 44.26 370.48 48.22L370.55 52.8Z" fill="#253858"/>
<path d="M407.51 89.41C409.11 89.3622 410.701 89.1545 412.26 88.79V96.09C410.602 96.5644 408.885 96.8001 407.16 96.79C397.74 96.79 393.16 91.25 393.16 83.06V59.84H386V52.84H393.13V43.47H400.52V52.8H412.22V59.8H400.52V82.9C400.56 86.77 402.85 89.41 407.51 89.41Z" fill="#253858"/>
<path d="M414.38 52.8H422.74L435.41 90.11L448.25 52.8H455.47L468.32 90.11L481 52.8H489.36L473.17 96.8H463.49L455.92 75.51L451.92 61.96L447.92 75.51L440.25 96.8H430.57L414.38 52.8Z" fill="#253858"/>
<path d="M523.93 88.88C521.11 94.69 515.83 97.68 509.06 97.68C497.36 97.68 491.46 87.74 491.46 74.8C491.46 62.39 497.62 51.92 509.94 51.92C516.36 51.92 521.29 54.82 523.94 60.54V52.8H531.51V96.8H523.94L523.93 88.88ZM511.08 90.64C517.86 90.64 523.93 86.33 523.93 76.56V73C523.93 63.23 518.39 58.92 511.93 58.92C503.43 59 499 64.59 499 74.8C499 85.36 503.25 90.64 511.09 90.64H511.08Z" fill="#253858"/>
<path d="M542.94 52.8H550.33V60.54C552.88 55.35 557.33 51.65 565.91 52.18V59.57C556.23 58.57 550.33 61.51 550.33 70.83V96.83H542.94V52.8Z" fill="#253858"/>
<path d="M592.57 97.68C576.11 97.68 568.9 88.18 568.9 74.68C568.9 61.39 576.29 51.89 589.67 51.89C603.22 51.89 608.67 61.31 608.67 74.68V78.11H576.56C577.62 85.59 582.46 90.43 592.84 90.43C597.405 90.4259 601.934 89.6203 606.22 88.05V95.05C602.61 97 597.06 97.68 592.57 97.68ZM576.47 71.68H601C600.56 63.5 596.86 58.83 589.3 58.83C581.31 58.79 577.26 64 576.47 71.63V71.68Z" fill="#253858"/>
<path d="M97.4 65.76L64.8 33.16L61.64 30L37.1 54.54L25.88 65.76C25.3182 66.3225 25.0026 67.085 25.0026 67.88C25.0026 68.675 25.3182 69.4375 25.88 70L48.3 92.42L61.64 105.76L86.18 81.22L86.56 80.84L97.4 70C97.9618 69.4375 98.2773 68.675 98.2773 67.88C98.2773 67.085 97.9618 66.3225 97.4 65.76V65.76ZM61.64 79.08L50.44 67.88L61.64 56.68L72.84 67.88L61.64 79.08Z" fill="#2684FF"/>
<path d="M61.64 56.68C58.1174 53.1571 56.1319 48.3834 56.1169 43.4015C56.1019 38.4196 58.0587 33.6341 61.56 30.09L37.05 54.59L50.39 67.93L61.64 56.68Z" fill="url(#paint0_linear)"/>
<path d="M72.87 67.85L61.64 79.08C63.3925 80.8314 64.7827 82.911 65.7312 85.2C66.6797 87.4889 67.1679 89.9423 67.1679 92.42C67.1679 94.8976 66.6797 97.351 65.7312 99.64C64.7827 101.929 63.3925 104.009 61.64 105.76V105.76L86.21 81.19L72.87 67.85Z" fill="url(#paint1_linear)"/>
</g>
<g clip-path="url(#clip2)">
<path opacity="0.1" d="M1447 412.978C1447.02 430.354 1445.2 447.683 1441.57 464.676C1440.36 470.366 1438.94 475.944 1437.33 481.409C1435.33 488.221 1433.05 494.825 1430.48 501.222C1429.18 504.48 1427.8 507.681 1426.35 510.826C1426.4 528.553 1423.23 546.142 1417.01 562.738C1405.99 591.933 1385.94 615.749 1360.84 629.663C1345.2 638.396 1327.59 642.987 1309.68 643H714.61C682.804 643 653.323 631.683 629.154 612.4C622.088 606.739 615.521 600.48 609.529 593.692C601.192 584.223 593.954 573.839 587.954 562.738C574.031 537.116 566.01 506.954 566.01 474.671C551.466 445.192 543 409.852 543 371.822C543 323.889 556.478 280.174 578.621 247.069C583.188 240.226 588.243 233.722 593.748 227.609C599.066 221.693 604.851 216.215 611.048 211.229C615.907 207.321 621.036 203.762 626.399 200.581C628.617 199.275 630.843 198.046 633.107 196.901C635.092 195.877 637.103 194.922 639.14 194.035C641.58 192.96 644.052 191.974 646.554 191.078C649.056 190.181 651.525 189.395 653.96 188.719C657.56 187.712 661.211 186.899 664.897 186.284C667.968 185.753 671.038 185.362 674.108 185.108C676.548 184.908 679.01 184.793 681.491 184.762C681.944 184.762 682.382 184.762 682.834 184.762C685.567 184.762 688.284 184.893 690.978 185.1C691.262 184.44 691.569 183.779 691.853 183.118C692.927 180.752 694.04 178.401 695.161 176.081C695.163 176.06 695.163 176.04 695.161 176.019C695.353 175.62 695.545 175.251 695.744 174.829C696.65 172.939 697.594 171.064 698.561 169.205C699.006 168.344 699.444 167.492 699.896 166.639C699.996 166.439 700.096 166.247 700.211 166.047C700.672 165.164 701.14 164.288 701.616 163.412C703.985 159.043 706.448 154.741 709.007 150.505C709.229 150.144 709.437 149.783 709.659 149.429C710.058 148.776 710.427 148.123 710.872 147.478C711.931 145.757 713.021 144.044 714.119 142.346C714.886 141.147 715.654 139.949 716.482 138.766C718.478 135.769 720.525 132.812 722.623 129.892C724.721 126.973 726.9 124.053 729.162 121.134C729.469 120.734 729.776 120.366 730.098 119.943L733.376 115.817L733.828 115.257L735.018 113.805C736.776 111.661 738.579 109.541 740.391 107.443C749.512 96.9197 759.333 87.0249 769.787 77.8262C770.194 77.4497 770.608 77.0579 771.015 76.7352C772.964 75.0374 774.944 73.3625 776.925 71.7184C787.718 62.7607 799.106 54.5469 811.01 47.1336C811.824 46.6112 812.653 46.1041 813.489 45.5971C824.005 39.1656 834.895 33.3677 846.101 28.234C852.241 25.4068 858.445 22.7895 864.714 20.3823C868.874 18.7996 873.049 17.3092 877.278 15.8956C883.817 13.7341 890.438 11.775 897.141 10.0183C916.801 4.90655 936.914 1.73634 957.192 0.553106C963.332 0.184334 969.541 -5.15286e-05 975.82 -5.15286e-05C1006.23 -0.0279961 1036.48 4.3954 1065.61 13.1298C1065.88 13.6374 1066.28 14.062 1066.77 14.3573C1067.26 14.6526 1067.82 14.8073 1068.4 14.8046H1070.98C1072.11 15.158 1073.22 15.5268 1074.34 15.8956C1080.6 17.975 1086.76 20.2517 1092.84 22.7255L1094.38 23.3555C1123.41 35.3107 1150.47 51.5928 1174.63 71.6493C1176.43 73.1295 1178.2 74.6327 1179.94 76.159C1182.06 74.5866 1184.21 73.0834 1186.4 71.6493C1194.73 66.1351 1203.73 61.7001 1213.18 58.4503C1232.52 51.7867 1253.36 50.8425 1273.23 55.7306C1298.75 61.992 1321.85 77.5266 1340.51 99.6145C1348.2 108.793 1354.96 118.717 1360.68 129.239C1361.11 130.007 1361.53 130.776 1361.94 131.544C1366.98 141.069 1371.27 150.971 1374.78 161.161C1374.91 161.53 1375.05 161.929 1375.16 162.267C1378.45 171.947 1381.09 181.836 1383.07 191.869C1383.16 192.376 1383.27 192.891 1383.36 193.405C1385.22 203.191 1386.48 213.082 1387.13 223.022C1387.13 223.384 1387.13 223.745 1387.19 224.106C1387.52 229.258 1387.68 234.467 1387.69 239.732C1387.69 244.445 1387.56 249.111 1387.29 253.73C1387.29 254.245 1387.23 254.768 1387.19 255.267C1387.13 256.611 1387.03 257.956 1386.93 259.293C1392.85 264.824 1398.33 270.803 1403.34 277.178C1405.57 280.011 1407.74 282.943 1409.83 285.975C1416.27 295.332 1421.87 305.243 1426.56 315.592C1439.54 343.98 1447 377.307 1447 412.978Z" fill="#2783FF"/>
<path opacity="0.1" d="M1366.41 613.314C1366.41 624.723 1331.17 635.133 1273.25 643H729.845C671.936 635.133 636.691 624.723 636.691 613.314C636.691 604.625 657.138 596.512 692.49 589.659L693.488 589.467C703.465 587.554 714.617 585.74 726.806 584.043L727.734 583.912C737.405 582.575 747.692 581.313 758.596 580.124L759.625 580.017C763.831 579.556 768.124 579.11 772.504 578.68L774.192 578.519C806.083 575.446 842.333 572.956 881.645 571.289H881.691C887.197 571.059 892.761 570.844 898.385 570.644C904.637 570.413 910.967 570.208 917.373 570.029C922.262 569.883 927.213 569.76 932.179 569.645H932.294C954.698 569.115 977.846 568.838 1001.52 568.838C1060.05 568.838 1115.37 570.521 1164.39 573.51H1164.53C1172.07 573.97 1179.47 574.454 1186.68 574.977L1192.82 575.43C1200.96 576.045 1208.89 576.695 1216.61 577.382C1307.43 585.472 1366.41 598.555 1366.41 613.314Z" fill="#2783FF"/>
<path opacity="0.03" d="M786.235 80.9147V104.216C786.236 104.631 786.155 105.041 785.997 105.424C785.84 105.807 785.608 106.155 785.316 106.449C785.023 106.742 784.676 106.975 784.294 107.134C783.912 107.292 783.502 107.374 783.088 107.374H740.475C749.597 96.8506 759.418 86.9558 769.871 77.7571H783.096C783.509 77.7581 783.918 77.8406 784.299 77.9998C784.681 78.159 785.027 78.3919 785.318 78.6851C785.61 78.9783 785.841 79.3261 785.998 79.7087C786.155 80.0912 786.236 80.501 786.235 80.9147V80.9147Z" stroke="white" stroke-miterlimit="10"/>
<path d="M1307.69 80.8686V430.91C1307.69 433.355 1306.72 435.7 1304.99 437.429C1303.26 439.158 1300.92 440.129 1298.48 440.129H674.108C671.665 440.129 669.322 439.158 667.595 437.429C665.868 435.7 664.897 433.355 664.897 430.91V186.284C667.968 185.753 671.038 185.362 674.108 185.108C676.548 184.908 679.01 184.793 681.491 184.762C681.944 184.762 682.382 184.762 682.834 184.762C685.567 184.762 688.284 184.893 690.978 185.1C691.262 184.44 691.569 183.779 691.853 183.118C692.927 180.752 694.04 178.401 695.161 176.081C695.163 176.06 695.163 176.04 695.161 176.019C695.353 175.62 695.545 175.251 695.744 174.829C696.65 172.939 697.594 171.064 698.561 169.205C699.006 168.344 699.444 167.492 699.896 166.639C699.996 166.439 700.096 166.247 700.211 166.047C700.672 165.164 701.14 164.288 701.616 163.412C703.985 159.043 706.448 154.741 709.007 150.505C709.229 150.144 709.437 149.783 709.659 149.429C710.058 148.776 710.427 148.123 710.872 147.478C711.931 145.757 713.021 144.044 714.119 142.346C714.886 141.147 715.654 139.949 716.482 138.766C718.478 135.77 720.525 132.812 722.623 129.892C724.721 126.973 726.9 124.053 729.162 121.134C729.469 120.734 729.776 120.366 730.098 119.943L733.376 115.817L733.828 115.257L735.018 113.805C736.776 111.661 738.579 109.541 740.391 107.443C749.512 96.9198 759.333 87.0249 769.787 77.8262C770.194 77.4498 770.608 77.058 771.015 76.7353C772.964 75.0374 774.944 73.3626 776.925 71.7184H1174.65C1176.45 73.1987 1178.22 74.7019 1179.96 76.2282C1182.08 74.6558 1184.24 73.1526 1186.43 71.7184H1298.48C1300.91 71.7204 1303.24 72.6831 1304.97 74.3969C1306.69 76.1107 1307.67 78.4368 1307.69 80.8686V80.8686Z" fill="white"/>
<path d="M1270.87 138.72V147.432H710.926C711.985 145.711 713.075 143.998 714.18 142.3C714.947 141.101 715.715 139.903 716.536 138.72H1270.87Z" fill="#3F3D56"/>
<path d="M1150.77 427.937V96.1573H1142.06V427.937H1150.77Z" fill="#3F3D56"/>
<path d="M990.641 427.937V96.1573H981.937V427.937H990.641Z" fill="#3F3D56"/>
<path d="M830.513 427.937V96.1573H821.809V427.937H830.513Z" fill="#3F3D56"/>
<path d="M730.582 166.001V200.312H695.184V176.035C695.184 176.035 695.184 175.996 695.184 175.973C695.376 175.574 695.568 175.205 695.767 174.783C696.68 172.893 697.617 171.018 698.592 169.159C699.029 168.298 699.467 167.446 699.919 166.593C700.019 166.393 700.127 166.201 700.234 166.001H730.582Z" fill="url(#paint2_linear)"/>
<path d="M729.975 166.593V199.721H695.798V174.76C696.711 172.87 697.648 170.995 698.622 169.136C699.06 168.275 699.497 167.422 699.95 166.57L729.975 166.593Z" fill="#7CFCFF"/>
<path d="M873.962 155.545H838.557V189.856H873.962V155.545Z" fill="url(#paint3_linear)"/>
<path d="M873.356 156.136H839.171V189.264H873.356V156.136Z" fill="#7CFCFF"/>
<path d="M1033.87 222.162H998.469V256.473H1033.87V222.162Z" fill="url(#paint4_linear)"/>
<path d="M1033.27 222.754H999.083V255.882H1033.27V222.754Z" fill="#7CFCFF"/>
<path d="M1197.05 244.888H1161.64V279.199H1197.05V244.888Z" fill="url(#paint5_linear)"/>
<path d="M1196.44 245.479H1162.25V278.607H1196.44V245.479Z" fill="#7CFCFF"/>
<path d="M1240.77 267.098H1205.36V301.41H1240.77V267.098Z" fill="url(#paint6_linear)"/>
<path d="M1240.16 267.69H1205.98V300.818H1240.16V267.69Z" fill="#7CFCFF"/>
<path d="M1295.6 207.749H1260.19V242.06H1295.6V207.749Z" fill="url(#paint7_linear)"/>
<path d="M1294.99 208.341H1260.8V241.469H1294.99V208.341Z" fill="#7CFCFF"/>
<path d="M1284.5 255.889H1249.1V290.201H1284.5V255.889Z" fill="url(#paint8_linear)"/>
<path d="M1283.89 256.481H1249.7V289.609H1283.89V256.481Z" fill="#7CFCFF"/>
<path d="M922.262 155.545H886.857V189.856H922.262V155.545Z" fill="url(#paint9_linear)"/>
<path d="M921.656 156.136H887.471V189.264H921.656V156.136Z" fill="#7CFCFF"/>
<path d="M756.831 238.726H721.425V273.037H756.831V238.726Z" fill="url(#paint10_linear)"/>
<path d="M756.217 239.318H722.032V272.446H756.217V239.318Z" fill="#FFFFA5"/>
<path d="M899.513 205.006H864.107V239.318H899.513V205.006Z" fill="url(#paint11_linear)"/>
<path d="M898.907 205.598H864.721V238.726H898.907V205.598Z" fill="#FFFFA5"/>
<path d="M1084.06 184.501H1048.65V218.812H1084.06V184.501Z" fill="url(#paint12_linear)"/>
<path d="M1083.44 185.093H1049.26V218.221H1083.44V185.093Z" fill="#FFFFA5"/>
<path d="M1270.86 160.439H1235.46V194.75H1270.86V160.439Z" fill="url(#paint13_linear)"/>
<path d="M1270.26 161.03H1236.07V194.158H1270.26V161.03Z" fill="#FFFFA5"/>
<path d="M1130.77 155.545H1095.36V189.856H1130.77V155.545Z" fill="url(#paint14_linear)"/>
<path d="M1130.15 156.136H1095.97V189.264H1130.15V156.136Z" fill="#FFFFA5"/>
<path d="M1128.76 222.162H1093.35V256.473H1128.76V222.162Z" fill="url(#paint15_linear)"/>
<path d="M1128.15 222.754H1093.96V255.882H1128.15V222.754Z" fill="#FFFFA5"/>
<path d="M969.802 172.117H934.397V206.428H969.802V172.117Z" fill="url(#paint16_linear)"/>
<path d="M969.196 172.701H935.011V205.829H969.196V172.701Z" fill="#FFFFA5"/>
<path d="M781.683 183.157H746.278V217.468H781.683V183.157Z" fill="url(#paint17_linear)"/>
<path d="M781.077 183.748H746.892V216.876H781.077V183.748Z" fill="#FF69B4"/>
<path d="M799.39 222.162H763.984V256.473H799.39V222.162Z" fill="url(#paint18_linear)"/>
<path d="M798.776 222.754H764.591V255.882H798.776V222.754Z" fill="#FF69B4"/>
<path d="M946.247 227.732H910.841V262.043H946.247V227.732Z" fill="url(#paint19_linear)"/>
<path d="M945.633 228.324H911.448V261.452H945.633V228.324Z" fill="#FF69B4"/>
<path d="M1205.36 160.439H1169.96V194.75H1205.36V160.439Z" fill="url(#paint20_linear)"/>
<path d="M1204.76 161.03H1170.57V194.158H1204.76V161.03Z" fill="#FF69B4"/>
<path d="M1236.69 207.749H1201.29V242.06H1236.69V207.749Z" fill="url(#paint21_linear)"/>
<path d="M1236.09 208.341H1201.9V241.469H1236.09V208.341Z" fill="#FF69B4"/>
<path d="M1036.97 155.545H1001.56V189.856H1036.97V155.545Z" fill="url(#paint22_linear)"/>
<path d="M1036.36 156.136H1002.18V189.264H1036.36V156.136Z" fill="#FF69B4"/>
<path d="M1080.05 255.889H1044.64V290.201H1080.05V255.889Z" fill="url(#paint23_linear)"/>
<path d="M1079.43 256.481H1045.25V289.609H1079.43V256.481Z" fill="#FF69B4"/>
<path d="M1178.28 234.992C1178.18 238.887 1176.86 242.675 1176.65 246.562C1188.16 247.131 1199.44 241.561 1210.79 243.267C1207.62 241.215 1205.92 237.504 1204.92 233.855C1203.65 229.149 1203.27 224.244 1203.8 219.396C1203.83 219.137 1203.88 218.881 1203.94 218.628C1204.36 216.723 1205.48 214.018 1205.16 212.52C1204.78 210.538 1202.91 210.93 1201.22 211.045C1196.09 211.438 1190.98 212.097 1185.92 213.02C1184.6 213.25 1171.74 216.461 1171.55 216.131C1173.67 219.796 1175.83 223.606 1177.12 227.601C1177.92 229.982 1178.31 232.481 1178.28 234.992V234.992Z" fill="#EE8E9E"/>
<path d="M1064.84 222.946C1065.83 224.293 1067.01 225.485 1068.35 226.48C1069.22 227.194 1070.11 227.924 1071.05 228.577C1072.71 229.854 1074.69 230.651 1076.78 230.882C1079.51 231.066 1085.31 229.461 1087.01 227.117C1087.73 225.941 1088.07 224.574 1087.99 223.199C1087.96 221.333 1087.64 219.483 1087.05 217.714C1085.98 214.838 1084.49 212.139 1082.62 209.708C1080.65 206.958 1078.45 204.254 1075.51 202.586C1074.53 202.062 1073.52 201.598 1072.49 201.196L1067.12 198.999C1066.81 198.853 1066.48 198.767 1066.14 198.745C1064.71 198.745 1064.45 200.95 1065.26 202.133C1066.89 204.522 1070.55 205.206 1071.58 207.895C1070.71 207.916 1069.87 208.213 1069.18 208.743C1068.49 209.273 1067.98 210.01 1067.74 210.845C1067.7 211.289 1067.52 211.709 1067.22 212.044C1066.76 212.42 1066.02 212.205 1065.48 212.489C1064.54 212.997 1064.95 214.41 1064.85 215.486C1064.76 216.438 1064.16 217.26 1063.87 218.175C1063.67 218.993 1063.66 219.845 1063.82 220.669C1063.99 221.494 1064.34 222.271 1064.84 222.946V222.946Z" fill="#EE8E9E"/>
<path d="M1222.95 613.844C1222.07 612.96 1220.65 613.114 1219.39 613.306C1212.77 614.353 1206.08 614.895 1199.38 614.927C1198.55 610.825 1200.98 606.837 1201.76 602.727C1201.87 601.67 1202.12 600.635 1202.53 599.654C1203.47 597.841 1205.6 597.011 1207.6 596.581C1211.2 595.813 1216.81 594.476 1218.85 598.117C1221.3 602.504 1222.08 608.973 1222.95 613.844Z" fill="#65617D"/>
<path d="M1149.65 598.356C1152.36 600.215 1155.74 600.791 1159.01 601.214C1162.28 601.636 1165.64 601.943 1168.61 603.403C1171.16 604.663 1173.31 606.737 1176.02 607.644C1178.48 608.466 1181.16 608.243 1183.69 607.767C1186.76 607.198 1189.97 606.084 1191.62 603.457C1193.08 601.152 1192.92 598.163 1192.72 595.413C1192.48 592.34 1192.26 589.19 1192.03 586.079C1192.04 585.288 1191.84 584.51 1191.45 583.82C1189.25 580.616 1183.91 585.164 1181.05 585.157C1176.52 585.157 1171.65 582.698 1168.39 579.686C1168.11 579.378 1167.78 579.119 1167.41 578.918C1166.11 578.334 1164.82 579.41 1163.67 580.347C1163.55 580.455 1163.42 580.555 1163.29 580.654C1160.64 582.76 1157.09 583.182 1153.82 584.035C1150.55 584.888 1147.05 586.601 1146.03 589.828C1145.97 590.031 1145.92 590.239 1145.88 590.45C1145.3 593.469 1147.11 596.612 1149.65 598.356Z" fill="#3F3D56"/>
<path opacity="0.05" d="M1149.65 598.356C1152.36 600.215 1155.74 600.791 1159.01 601.214C1162.28 601.636 1165.64 601.943 1168.61 603.403C1171.16 604.663 1173.31 606.737 1176.02 607.644C1178.48 608.466 1181.16 608.243 1183.69 607.767C1186.76 607.198 1189.97 606.084 1191.62 603.457C1193.08 601.152 1192.92 598.163 1192.72 595.413C1192.48 592.34 1192.26 589.19 1192.03 586.079C1192.04 585.288 1191.84 584.51 1191.45 583.82C1189.25 580.616 1183.91 585.164 1181.05 585.157C1176.52 585.157 1171.65 582.698 1168.39 579.686C1168.11 579.378 1167.78 579.119 1167.41 578.918C1166.11 578.334 1164.82 579.41 1163.67 580.347C1163.55 580.455 1163.42 580.555 1163.29 580.654C1160.64 582.76 1157.09 583.182 1153.82 584.035C1150.55 584.888 1147.05 586.601 1146.03 589.828C1145.97 590.031 1145.92 590.239 1145.88 590.45C1145.3 593.469 1147.11 596.612 1149.65 598.356Z" fill="black"/>
<path d="M1149.65 599.4C1152.36 601.26 1155.74 601.836 1159.01 602.258C1162.28 602.681 1165.64 602.988 1168.61 604.448C1171.16 605.716 1173.31 607.782 1176.02 608.689C1178.48 609.511 1181.16 609.288 1183.69 608.812C1186.93 608.121 1189.78 606.191 1191.62 603.434C1193.08 601.129 1192.92 598.14 1192.72 595.39C1192.48 592.317 1192.26 589.167 1192.03 586.055C1192.04 585.265 1191.84 584.487 1191.45 583.797C1189.25 580.593 1183.91 585.141 1181.05 585.133C1176.52 585.133 1171.65 582.675 1168.39 579.663C1168.11 579.355 1167.78 579.096 1167.41 578.895C1166.11 578.311 1164.82 579.387 1163.67 580.324C1164.43 582.651 1165.5 584.864 1166.86 586.901C1169.16 590.273 1172.78 592.855 1176.83 593.154C1178.86 593.3 1180.94 592.901 1182.9 593.423C1184.85 593.946 1186.68 595.951 1185.97 597.856C1185.25 599.761 1182.9 600.161 1180.92 600.23C1178.15 600.376 1175.31 600.514 1172.68 599.654C1171.08 599.116 1169.61 598.233 1168.08 597.58C1161.44 594.821 1153.05 596.366 1147.56 591.71C1147.04 591.233 1146.48 590.803 1145.89 590.427C1144.45 593.469 1147.11 597.656 1149.65 599.4Z" fill="#E8EAF2"/>
<path opacity="0.05" d="M1149.65 599.4C1152.36 601.26 1155.74 601.836 1159.01 602.258C1162.28 602.681 1165.64 602.988 1168.61 604.448C1171.16 605.716 1173.31 607.782 1176.02 608.689C1178.48 609.511 1181.16 609.288 1183.69 608.812C1186.93 608.121 1189.78 606.191 1191.62 603.434C1193.08 601.129 1192.92 598.14 1192.72 595.39C1192.48 592.317 1192.26 589.167 1192.03 586.055C1192.04 585.265 1191.84 584.487 1191.45 583.797C1189.25 580.593 1183.91 585.141 1181.05 585.133C1176.52 585.133 1171.65 582.675 1168.39 579.663C1168.11 579.355 1167.78 579.096 1167.41 578.895C1166.11 578.311 1164.82 579.387 1163.67 580.324C1164.43 582.651 1165.5 584.864 1166.86 586.901C1169.16 590.273 1172.78 592.855 1176.83 593.154C1178.86 593.3 1180.94 592.901 1182.9 593.423C1184.85 593.946 1186.68 595.951 1185.97 597.856C1185.25 599.761 1182.9 600.161 1180.92 600.23C1178.15 600.376 1175.31 600.514 1172.68 599.654C1171.08 599.116 1169.61 598.233 1168.08 597.58C1161.44 594.821 1153.05 596.366 1147.56 591.71C1147.04 591.233 1146.48 590.803 1145.89 590.427C1144.45 593.469 1147.11 597.656 1149.65 599.4Z" fill="black"/>
<path d="M1221.72 395.969C1223.84 406.37 1221.83 417.188 1216.11 426.131C1214.58 428.544 1212.74 430.81 1211.57 433.43C1210.8 435.303 1210.21 437.242 1209.79 439.223L1204.76 460.112C1203.39 465.751 1202.02 471.498 1202.45 477.283C1202.74 481.317 1203.75 485.849 1201.27 489.038C1200.66 489.644 1200.14 490.338 1199.74 491.097C1199.5 491.988 1199.5 492.926 1199.74 493.816C1202.28 508.982 1204.18 524.832 1199.57 539.506C1195.4 552.805 1195.15 567.54 1191.61 580.993C1191.17 582.667 1190.66 584.427 1189.4 585.602C1188.45 586.389 1187.31 586.918 1186.1 587.139C1180.86 588.391 1175.35 586.924 1170.46 584.665C1167.02 583.075 1163.33 580.286 1163.62 576.514C1163.77 574.716 1164.81 573.141 1165.53 571.489C1166.92 568.247 1167.06 564.628 1167.41 561.117C1168.35 552.298 1171.07 543.793 1173.12 535.165C1175.17 526.537 1176.56 517.533 1174.83 508.836C1171.29 490.857 1165.63 473.365 1157.94 456.732C1157.61 455.857 1157.09 455.07 1156.41 454.427C1155.72 453.858 1154.81 453.597 1154.21 452.89C1153.62 452.184 1153.45 451.108 1153.22 450.163C1152.45 447.413 1150.18 445.384 1148.67 442.964C1144.83 436.864 1146.04 429.043 1146.19 421.837C1146.32 414.822 1145.32 407.747 1146.46 400.832C1147.61 393.918 1151.57 386.85 1158.23 384.698C1161.53 383.63 1165.1 383.869 1168.55 384.214C1186.77 386.035 1204.53 389.392 1221.72 395.969Z" fill="#303D5C"/>
<path opacity="0.05" d="M1221.72 395.969C1223.84 406.37 1221.83 417.188 1216.11 426.131C1214.58 428.544 1212.74 430.81 1211.57 433.43C1210.8 435.303 1210.21 437.242 1209.79 439.223L1204.76 460.112C1203.39 465.751 1202.02 471.498 1202.45 477.283C1202.74 481.317 1203.75 485.849 1201.27 489.038C1200.66 489.644 1200.14 490.338 1199.74 491.097C1199.5 491.988 1199.5 492.926 1199.74 493.816C1202.28 508.982 1204.18 524.832 1199.57 539.506C1195.4 552.805 1195.15 567.54 1191.61 580.993C1191.17 582.667 1190.66 584.427 1189.4 585.602C1188.45 586.389 1187.31 586.918 1186.1 587.139C1180.86 588.391 1175.35 586.924 1170.46 584.665C1167.02 583.075 1163.33 580.286 1163.62 576.514C1163.77 574.716 1164.81 573.141 1165.53 571.489C1166.92 568.247 1167.06 564.628 1167.41 561.117C1168.35 552.298 1171.07 543.793 1173.12 535.165C1175.17 526.537 1176.56 517.533 1174.83 508.836C1171.29 490.857 1165.63 473.365 1157.94 456.732C1157.61 455.857 1157.09 455.07 1156.41 454.427C1155.72 453.858 1154.81 453.597 1154.21 452.89C1153.62 452.184 1153.45 451.108 1153.22 450.163C1152.45 447.413 1150.18 445.384 1148.67 442.964C1144.83 436.864 1146.04 429.043 1146.19 421.837C1146.32 414.822 1145.32 407.747 1146.46 400.832C1147.61 393.918 1151.57 386.85 1158.23 384.698C1161.53 383.63 1165.1 383.869 1168.55 384.214C1186.77 386.035 1204.53 389.392 1221.72 395.969Z" fill="black"/>
<path d="M1147.21 439.937C1147.26 442.659 1147.57 445.37 1148.13 448.035C1151.35 466.141 1154.79 484.205 1158.44 502.229C1158.76 503.766 1159.07 505.356 1159.49 506.892C1160.86 511.907 1163.23 516.589 1166.48 520.645C1181.68 539.606 1182.99 567.148 1191.24 590.02C1191.79 591.556 1192.35 593.093 1192.94 594.629C1194.43 598.508 1196.13 602.301 1198.03 605.992C1198.25 606.531 1198.61 607.001 1199.08 607.352C1199.59 607.609 1200.16 607.721 1200.73 607.675C1208.16 607.725 1215.5 606.061 1222.19 602.811C1223.15 602.464 1223.96 601.797 1224.49 600.922C1224.74 600.224 1224.82 599.476 1224.73 598.74C1224.5 594.207 1224.22 589.52 1222.06 585.525C1220.63 583.142 1218.85 580.983 1216.78 579.118C1216.14 564.889 1214.73 550.63 1211.61 536.732C1210.01 529.626 1208.02 522.442 1203.93 516.434C1200.86 512.001 1196.54 507.63 1197.07 502.275C1197.31 499.97 1198.29 497.005 1196.38 495.622C1195.55 495.015 1194.31 494.938 1193.75 494.085C1193.52 493.68 1193.4 493.227 1193.38 492.764C1192.99 489.092 1193.21 485.381 1194.06 481.785C1194.61 479.404 1195.44 477.068 1195.69 474.633C1195.94 472.197 1195.51 469.547 1193.9 467.718C1193.8 462.832 1193.9 457.731 1193.83 452.89C1193.78 450.102 1193.73 447.274 1194.51 444.608C1194.89 443.325 1195.45 442.104 1195.73 440.767C1196.75 436.081 1194.19 430.457 1197.26 426.738C1198.53 425.202 1200.48 424.434 1202.13 423.312C1205.44 421.099 1207.6 417.488 1208.81 413.701C1210.01 409.913 1210.34 405.903 1210.7 401.931C1210.79 401.085 1210.79 400.233 1210.7 399.388C1210.65 398.951 1210.54 398.524 1210.37 398.12C1209.42 396 1206.89 395.178 1204.63 394.632C1190.3 391.191 1175.62 389.474 1160.88 389.515C1155.43 385.797 1152.36 387.126 1150.05 391.052C1148.78 393.456 1147.75 395.981 1146.98 398.589C1145.93 401.777 1145.86 419.647 1144.84 422.851C1143.4 427.046 1147.26 435.558 1147.21 439.937Z" fill="#303D5C"/>
<path d="M1245.75 277.355C1246.16 280.167 1244.8 282.933 1244.65 285.768C1244.52 288.241 1245.31 290.661 1245.76 293.105C1247.52 302.631 1244.14 312.273 1240.7 321.323C1240.05 322.783 1239.64 324.341 1239.5 325.933C1239.41 328.891 1241.11 331.595 1241.57 334.515C1242.55 340.661 1238.04 346.415 1237.94 352.63C1237.94 355.488 1238.79 358.4 1238.08 361.166C1237.61 363.018 1236.45 364.6 1235.63 366.329C1234.18 369.402 1233.8 372.851 1232.41 375.932C1229.91 381.51 1224.54 385.152 1219.44 388.494C1216.53 387.526 1213.38 386.373 1211.76 383.753C1211.06 382.464 1210.61 381.054 1210.44 379.597C1209.33 373.243 1209.37 366.759 1209.41 360.313C1209.33 354.788 1209.63 349.264 1210.31 343.78C1211.34 336.773 1213.61 330.02 1215.24 323.129C1217.3 314.44 1218.31 305.458 1221.55 297.123C1224.36 289.793 1228.74 283.217 1233.35 276.925C1235.11 274.52 1236.5 271.086 1239.92 271.639C1241.35 271.883 1242.68 272.561 1243.73 273.582C1244.77 274.604 1245.47 275.92 1245.75 277.355V277.355Z" fill="#2783FF"/>
<path opacity="0.05" d="M1245.75 277.355C1246.16 280.167 1244.8 282.933 1244.65 285.768C1244.52 288.241 1245.31 290.661 1245.76 293.105C1247.52 302.631 1244.14 312.273 1240.7 321.323C1240.05 322.783 1239.64 324.341 1239.5 325.933C1239.41 328.891 1241.11 331.595 1241.57 334.515C1242.55 340.661 1238.04 346.415 1237.94 352.63C1237.94 355.488 1238.79 358.4 1238.08 361.166C1237.61 363.018 1236.45 364.6 1235.63 366.329C1234.18 369.402 1233.8 372.851 1232.41 375.932C1229.91 381.51 1224.54 385.152 1219.44 388.494C1216.53 387.526 1213.38 386.373 1211.76 383.753C1211.06 382.464 1210.61 381.054 1210.44 379.597C1209.33 373.243 1209.37 366.759 1209.41 360.313C1209.33 354.788 1209.63 349.264 1210.31 343.78C1211.34 336.773 1213.61 330.02 1215.24 323.129C1217.3 314.44 1218.31 305.458 1221.55 297.123C1224.36 289.793 1228.74 283.217 1233.35 276.925C1235.11 274.52 1236.5 271.086 1239.92 271.639C1241.35 271.883 1242.68 272.561 1243.73 273.582C1244.77 274.604 1245.47 275.92 1245.75 277.355V277.355Z" fill="black"/>
<path opacity="0.1" d="M1171.53 216.1C1173.65 219.765 1175.8 223.576 1177.09 227.571C1179.16 228.081 1181.28 228.339 1183.41 228.339C1191.68 228.339 1197.53 223.629 1202.39 217.683C1202.81 215.77 1205.46 213.995 1205.14 212.489C1204.76 210.507 1202.88 210.899 1201.2 211.014C1196.07 211.407 1190.96 212.067 1185.9 212.989C1184.58 213.219 1171.74 216.431 1171.53 216.1Z" fill="black"/>
<path d="M1183.43 227.617C1198.06 227.617 1209.92 215.746 1209.92 201.104C1209.92 186.461 1198.06 174.59 1183.43 174.59C1168.81 174.59 1156.95 186.461 1156.95 201.104C1156.95 215.746 1168.81 227.617 1183.43 227.617Z" fill="#EE8E9E"/>
<path opacity="0.1" d="M1149.96 391.075C1154.57 390.806 1159.17 390.99 1163.78 391.175C1166.65 391.203 1169.52 391.499 1172.34 392.058C1175.82 392.827 1179.07 394.432 1182.51 395.423C1188 397.029 1193.8 397.098 1199.49 397.659C1203.23 398.025 1206.94 398.607 1210.61 399.403C1210.56 398.966 1210.45 398.539 1210.27 398.135C1209.33 396.015 1206.8 395.193 1204.54 394.647C1190.21 391.207 1175.53 389.489 1160.79 389.531C1155.34 385.812 1152.27 387.141 1149.96 391.075Z" fill="black"/>
<path d="M1168.01 244.511C1169.17 245.848 1170.72 247.323 1172.44 246.893C1173.05 246.678 1173.63 246.367 1174.15 245.971C1177.22 243.996 1180.95 243.535 1184.55 242.998C1191.79 241.905 1198.94 240.295 1205.95 238.181C1207.99 237.438 1210.12 237.003 1212.28 236.89C1216.77 236.89 1220.73 239.902 1223.57 243.405C1226.41 246.908 1228.37 251.003 1231.14 254.545C1233.1 257.072 1235.44 259.3 1237.28 261.92C1241.88 268.535 1242.91 277.171 1241.71 285.168C1240.51 293.166 1237.32 300.695 1234.16 308.14C1232.35 312.404 1230.52 316.691 1228.02 320.578C1229.09 326.655 1228.53 333.6 1225.64 339.017C1224.7 340.791 1223.54 342.52 1223.24 344.51C1223.09 345.852 1223.15 347.209 1223.4 348.536L1224.75 358.131C1225.16 361.058 1225.57 363.978 1226.1 366.882C1227.07 372.198 1228.4 377.968 1225.94 382.778C1222.99 388.532 1226.08 395.915 1225.31 402.338C1217.02 399.131 1208.34 397.063 1199.5 396.192C1193.8 395.631 1187.99 395.562 1182.51 393.964C1179.08 392.965 1175.84 391.382 1172.35 390.583C1169.53 390.03 1166.66 389.736 1163.78 389.707C1157.43 389.454 1151.04 389.2 1144.76 390.138C1144.24 390.215 1143.63 390.253 1143.32 389.838C1143.19 389.606 1143.12 389.339 1143.13 389.07C1143.03 386.713 1143.6 384.377 1144.76 382.324C1145.53 380.911 1146.67 379.52 1146.64 377.899C1146.58 377.14 1146.39 376.397 1146.09 375.702L1143.31 368.265C1140.95 361.996 1142.07 354.705 1140.85 348.121C1139.9 342.971 1139.29 337.763 1139.03 332.532C1138.79 328.061 1138.94 323.213 1141.63 319.641C1142.42 318.781 1143.11 317.829 1143.67 316.806C1144.06 315.721 1144.22 314.568 1144.15 313.418C1144.21 304.475 1143.96 295.535 1143.38 286.597C1145.74 282.372 1148.19 278.046 1150.54 273.821C1153.27 268.904 1156.05 263.887 1157.15 258.371C1157.92 254.714 1157.86 250.957 1158.38 247.269C1158.43 246.331 1158.76 245.428 1159.32 244.673C1160.22 243.658 1161.73 243.512 1163.09 243.551C1164.77 243.618 1166.43 243.942 1168.01 244.511V244.511Z" fill="#2783FF"/>
<path opacity="0.1" d="M1071.04 228.577C1072.7 229.854 1074.69 230.651 1076.77 230.882C1079.5 231.066 1085.31 229.461 1087 227.117C1087.72 225.941 1088.06 224.574 1087.98 223.199C1087.61 223.079 1087.23 223.004 1086.84 222.976C1083.87 222.8 1080.84 222.623 1077.95 223.338C1075.07 224.052 1072.27 225.804 1071.05 228.523L1071.04 228.577Z" fill="black"/>
<path d="M1159.17 285.929C1157.55 287.934 1155.88 290.008 1153.59 291.192C1150.96 292.559 1147.86 292.59 1144.9 292.528C1132.69 292.267 1120.53 290.931 1108.55 288.533C1107.19 288.299 1105.85 287.939 1104.56 287.458C1103.12 286.772 1101.76 285.927 1100.51 284.938C1096.57 282.103 1092.57 279.214 1089.57 275.388C1086.01 270.771 1083.77 265.271 1083.1 259.477C1080.24 256.85 1078.73 253.108 1077.3 249.49C1076.6 247.957 1076.15 246.319 1075.98 244.642C1075.9 242.929 1077.04 241.131 1076.75 239.441C1076.2 236.531 1074.73 233.877 1072.55 231.873C1072.09 231.545 1071.73 231.081 1071.54 230.544C1071.49 230.096 1071.57 229.642 1071.79 229.246C1073 226.526 1075.8 224.774 1078.7 224.06C1081.6 223.345 1084.62 223.53 1087.59 223.706C1088.66 223.775 1089.44 224.275 1090.49 224.475L1092.57 229.937C1092.85 230.85 1093.31 231.697 1093.93 232.426C1094.39 232.844 1094.88 233.229 1095.39 233.579C1096.44 234.474 1097.26 235.613 1097.76 236.896C1098.27 238.179 1098.46 239.567 1098.31 240.939C1100.18 241.665 1101.71 243.079 1102.57 244.891C1103.44 246.704 1103.59 248.779 1102.98 250.696C1104.54 251.031 1105.99 251.761 1107.18 252.816C1108.38 253.87 1109.28 255.214 1109.81 256.719C1109.96 257.405 1110.27 258.046 1110.7 258.594C1111.38 259.124 1112.23 259.396 1113.09 259.362C1115.39 259.508 1117.47 261.352 1119.6 260.353C1122 259.226 1124.68 258.849 1127.3 259.27C1127.84 259.399 1128.39 259.448 1128.95 259.416C1129.42 259.333 1129.88 259.175 1130.3 258.947C1131.26 258.391 1132.29 257.982 1133.37 257.733C1133.91 257.621 1134.47 257.667 1134.99 257.868C1135.51 258.068 1135.95 258.414 1136.28 258.863C1137.04 258.048 1137.47 257.003 1138.14 256.135C1138.44 255.67 1138.86 255.296 1139.36 255.058C1139.86 254.819 1140.42 254.724 1140.97 254.783C1140.26 254.153 1140.97 252.901 1141.9 252.67C1142.82 252.44 1143.78 252.778 1144.72 252.778C1147.17 252.778 1149.05 250.534 1151.43 249.951C1153.62 249.42 1156.53 250.058 1157.65 248.099C1158.05 247.408 1158.13 246.47 1158.8 246.048C1159.26 245.82 1159.78 245.757 1160.28 245.871C1161.83 246.079 1163.34 246.539 1164.75 247.231C1167.05 256.212 1165.84 265.539 1164.09 274.643C1163.26 278.968 1161.94 282.472 1159.17 285.929Z" fill="#2783FF"/>
<path opacity="0.1" d="M1159.25 318.112L1170.65 341.16C1169.42 339.032 1166.82 338.202 1164.77 336.842C1162.16 334.961 1160.19 332.318 1159.14 329.275C1158.09 326.24 1157.35 323.104 1156.95 319.917C1156.72 318.458 1156.23 316.406 1156.95 315.085C1158.27 315.354 1158.7 317.029 1159.25 318.112Z" fill="black"/>
<path opacity="0.1" d="M1192.06 337.634C1194.63 340.184 1197.79 342.059 1200.62 344.318C1207.23 349.588 1211.95 356.825 1216.55 363.924C1217.85 365.791 1218.94 367.795 1219.81 369.901C1219.27 370.37 1218.46 369.901 1217.93 369.417L1208.97 361.535C1207.87 360.633 1206.87 359.619 1205.98 358.508C1204.45 356.418 1203.74 353.798 1202.33 351.593C1200.92 349.388 1198.86 347.752 1196.89 346.039C1194.92 344.325 1185.38 336.274 1187.68 333.17C1189.34 334 1190.72 336.305 1192.06 337.634Z" fill="black"/>
<path d="M1172.49 237.858C1175.33 236.083 1178.68 235.338 1181.97 234.731C1183.95 234.282 1185.98 234.137 1188 234.301C1189.87 234.531 1191.65 235.253 1193.53 235.353C1196.17 235.507 1198.69 234.431 1201.21 233.74C1203.73 233.049 1206.7 232.772 1208.84 234.316C1209.29 234.765 1209.87 235.072 1210.5 235.2C1211.15 235.12 1211.75 234.822 1212.21 234.355C1214.01 233.065 1216.2 232.426 1218.41 232.543C1220.62 232.66 1222.73 233.527 1224.39 235C1229.25 239.556 1228.7 248.46 1234.37 251.902C1235.94 252.855 1237.94 253.362 1238.86 254.975C1239.07 255.483 1239.33 255.974 1239.62 256.443C1240 256.862 1240.47 257.195 1240.99 257.418C1242.64 258.156 1244.22 259.06 1245.69 260.115C1246.42 260.649 1247.04 261.326 1247.5 262.105C1247.96 262.884 1248.27 263.749 1248.39 264.648C1248.42 265.976 1248.13 267.292 1247.55 268.489C1244.77 275.328 1239.94 281.136 1233.72 285.114C1227.51 289.093 1220.21 291.047 1212.85 290.708C1211.55 290.646 1210.14 290.469 1209.21 289.571C1208.66 288.954 1208.23 288.243 1207.93 287.473C1205.26 281.857 1200.26 277.708 1197.04 272.369C1195.14 269.188 1193.92 265.631 1191.94 262.497C1188.99 257.733 1184.42 254.191 1179.97 250.819C1177.45 248.898 1174.65 246.885 1171.48 247.016C1168.67 247.139 1166.61 247.292 1167.65 243.827C1168.5 241.322 1170.21 239.205 1172.49 237.858V237.858Z" fill="#2783FF"/>
<path opacity="0.05" d="M1172.49 237.858C1175.33 236.083 1178.68 235.338 1181.97 234.731C1183.95 234.282 1185.98 234.137 1188 234.301C1189.87 234.531 1191.65 235.253 1193.53 235.353C1196.17 235.507 1198.69 234.431 1201.21 233.74C1203.73 233.049 1206.7 232.772 1208.84 234.316C1209.29 234.765 1209.87 235.072 1210.5 235.2C1211.15 235.12 1211.75 234.822 1212.21 234.355C1214.01 233.065 1216.2 232.426 1218.41 232.543C1220.62 232.66 1222.73 233.527 1224.39 235C1229.25 239.556 1228.7 248.46 1234.37 251.902C1235.94 252.855 1237.94 253.362 1238.86 254.975C1239.07 255.483 1239.33 255.974 1239.62 256.443C1240 256.862 1240.47 257.195 1240.99 257.418C1242.64 258.156 1244.22 259.06 1245.69 260.115C1246.42 260.649 1247.04 261.326 1247.5 262.105C1247.96 262.884 1248.27 263.749 1248.39 264.648C1248.42 265.976 1248.13 267.292 1247.55 268.489C1244.77 275.328 1239.94 281.136 1233.72 285.114C1227.51 289.093 1220.21 291.047 1212.85 290.708C1211.55 290.646 1210.14 290.469 1209.21 289.571C1208.66 288.954 1208.23 288.243 1207.93 287.473C1205.26 281.857 1200.26 277.708 1197.04 272.369C1195.14 269.188 1193.92 265.631 1191.94 262.497C1188.99 257.733 1184.42 254.191 1179.97 250.819C1177.45 248.898 1174.65 246.885 1171.48 247.016C1168.67 247.139 1166.61 247.292 1167.65 243.827C1168.5 241.322 1170.21 239.205 1172.49 237.858V237.858Z" fill="black"/>
<path d="M1158.7 622.164C1160.62 623.954 1163.26 624.738 1165.82 625.299C1171.64 626.574 1177.6 627.028 1183.54 627.489L1189.33 627.934C1194.98 628.357 1200.63 628.795 1206.31 628.818C1213.3 628.843 1220.29 628.239 1227.18 627.012C1227.46 627.041 1227.74 627.004 1228 626.905C1228.26 626.805 1228.49 626.645 1228.68 626.438C1228.86 626.232 1229 625.984 1229.07 625.715C1229.14 625.446 1229.15 625.164 1229.09 624.892C1228.97 617.827 1228.12 610.795 1226.53 603.91C1225.87 601.083 1220.8 607.421 1220.58 607.69C1219.18 609.288 1218.11 609.995 1215.98 610.133C1210.15 610.456 1203.62 606.906 1198.99 603.756C1198 603.016 1196.95 602.363 1195.84 601.805C1195.04 601.426 1194.18 601.167 1193.3 601.037C1190.3 600.761 1187.29 601.372 1184.63 602.796C1181.15 604.525 1178.1 607.006 1174.65 608.781C1171.85 610.225 1168.83 611.184 1165.71 611.616C1162.56 612.054 1158.8 612.261 1157.17 614.996C1155.83 617.286 1156.79 620.359 1158.7 622.164Z" fill="#3F3D56"/>
<path d="M1158.7 623.209C1160.62 624.999 1163.26 625.783 1165.82 626.344C1171.64 627.619 1177.6 628.072 1183.54 628.533L1189.33 628.979C1194.98 629.402 1200.63 629.839 1206.31 629.863C1213.3 629.888 1220.29 629.284 1227.18 628.057C1227.5 628.049 1227.81 627.977 1228.09 627.845C1228.38 627.712 1228.63 627.523 1228.84 627.289C1229.09 626.905 1230.14 625.376 1230.13 624.923C1230.01 617.862 1228.1 610.817 1226.52 603.941C1225.86 601.114 1220.8 607.452 1220.57 607.721C1219.17 609.319 1218.1 610.026 1215.97 610.164C1210.14 610.487 1203.61 606.937 1198.98 603.787C1197.99 603.046 1196.94 602.393 1195.84 601.836C1195.03 601.456 1194.18 601.198 1193.3 601.068C1194.06 605.262 1200.06 610.333 1203.16 611.877C1209.44 614.996 1216.9 613.414 1223.88 613.806C1224.39 613.792 1224.9 613.916 1225.35 614.167C1226.19 614.72 1226.24 615.911 1226.22 616.917C1226.15 618.592 1225.94 620.551 1224.5 621.404C1223.78 621.75 1222.99 621.916 1222.19 621.888C1204.93 622.648 1187.63 622.042 1170.46 620.075C1167.57 619.882 1164.72 619.25 1162.02 618.2C1160.26 617.375 1158.61 616.316 1157.13 615.05C1154.95 616.794 1156.79 621.419 1158.7 623.209Z" fill="#E8EAF2"/>
<path d="M1173.13 200.819C1173.23 203.562 1171.36 208.879 1176.48 207.396C1179.55 206.505 1180.39 202.886 1184.27 203.693C1188.15 204.499 1189.04 209.278 1190.35 212.405C1191.42 214.891 1193.07 217.079 1195.18 218.78C1197.28 220.482 1199.76 221.645 1202.41 222.17C1203.51 222.427 1204.64 222.427 1205.74 222.17C1208.24 221.455 1209.67 218.874 1210.69 216.485C1211.57 214.461 1212.3 212.376 1212.88 210.246C1213.27 208.735 1213.52 207.193 1213.64 205.637V205.637C1213.72 204.583 1213.72 203.525 1213.64 202.471C1213.18 196.241 1209.64 190.555 1205.09 186.253C1200.55 181.951 1195.05 178.854 1189.6 175.789C1187.83 174.677 1185.9 173.818 1183.89 173.238C1181.9 172.837 1179.87 172.754 1177.85 172.993C1175.2 173.099 1172.6 173.712 1170.18 174.798C1169.19 175.289 1168.28 175.929 1167.48 176.696C1166.35 177.753 1165.55 179.11 1165.17 180.606C1164.19 184.64 1166.76 188.289 1168.84 191.446C1170.69 194.289 1172.99 197.293 1173.13 200.819Z" fill="#3F3D56"/>
<path opacity="0.1" d="M1086.93 259.662C1088.02 256.903 1092.63 249.267 1091.29 246.639C1089.91 248.6 1088.74 250.698 1087.79 252.901C1086.93 255.037 1087.63 257.902 1086.93 259.662Z" fill="black"/>
<path opacity="0.1" d="M1168.73 191.462C1166.64 188.273 1164.07 184.647 1165.05 180.621C1165.54 178.852 1166.58 177.286 1168.03 176.158C1167.69 176.747 1167.43 177.38 1167.26 178.04C1166.28 182.066 1168.85 185.723 1170.94 188.88C1172.79 191.708 1175.08 194.712 1175.22 198.238C1175.32 200.973 1173.45 206.297 1178.58 204.814C1181.65 203.931 1182.49 200.305 1186.37 201.119C1190.24 201.933 1191.12 206.697 1192.44 209.824C1193.51 212.312 1195.17 214.501 1197.28 216.202C1199.39 217.904 1201.88 219.066 1204.53 219.588C1205.63 219.846 1206.76 219.846 1207.86 219.588C1208.41 219.423 1208.93 219.163 1209.39 218.82C1208.61 220.387 1207.25 221.588 1205.6 222.17C1204.51 222.427 1203.37 222.427 1202.28 222.17C1199.63 221.64 1197.15 220.475 1195.05 218.774C1192.95 217.073 1191.29 214.888 1190.23 212.405C1188.91 209.278 1188.06 204.515 1184.16 203.693C1180.25 202.871 1179.42 206.512 1176.36 207.396C1171.24 208.879 1173.11 203.554 1173.01 200.819C1172.88 197.293 1170.58 194.289 1168.73 191.462Z" fill="black"/>
<path opacity="0.1" d="M1167.59 186.015C1168.06 186.791 1168.57 187.54 1169.13 188.258C1170.21 189.623 1171.43 190.881 1172.75 192.015C1173.52 192.699 1174.35 193.336 1175.2 193.936C1176.77 195.041 1178.42 196.03 1180.14 196.894C1185.15 199.421 1190.57 201.004 1195.97 202.563L1206.54 205.636C1207.84 206.62 1210.22 208.395 1212.85 210.246C1213.24 208.735 1213.49 207.193 1213.61 205.636V205.636C1213.69 204.583 1213.69 203.525 1213.61 202.471C1213.14 196.24 1209.61 190.555 1205.06 186.253C1200.52 181.951 1195.02 178.854 1189.57 175.789C1187.8 174.677 1185.87 173.818 1183.86 173.238C1181.87 172.837 1179.83 172.754 1177.82 172.993C1175.17 173.099 1172.57 173.712 1170.15 174.798C1169.16 175.289 1168.25 175.929 1167.45 176.696C1166.84 177.576 1166.39 178.545 1166.09 179.569C1165.49 181.751 1166.41 184.086 1167.59 186.015Z" fill="black"/>
<path d="M1167.59 185.3C1168.06 186.077 1168.57 186.826 1169.13 187.544C1170.21 188.908 1171.43 190.166 1172.75 191.3C1173.52 191.984 1174.35 192.622 1175.2 193.221C1176.77 194.327 1178.42 195.315 1180.14 196.179C1185.15 198.707 1190.57 200.289 1195.97 201.856L1206.54 204.93C1210.24 207.726 1222.58 216.884 1224.66 215.739C1227.11 214.395 1213.7 204.891 1213.7 204.891L1213.08 205.36C1215.05 204.123 1216.08 201.257 1216.52 198.783C1217.29 194.35 1217.67 189.741 1216.62 185.362C1215.57 180.982 1212.94 176.811 1208.95 174.759C1207.17 173.845 1205.01 173.223 1203.73 171.817C1203.53 171.609 1203.36 171.38 1203.22 171.133C1203.15 171.017 1203.08 170.897 1203.02 170.772C1202.88 170.386 1202.69 170.019 1202.46 169.681C1201.69 168.828 1200.39 169.082 1199.28 169.22L1198.92 169.259C1198.72 169.259 1198.52 169.259 1198.32 169.259C1194.35 169.351 1190.49 167.13 1186.47 167.13C1182.06 167.13 1178.31 169.681 1174.43 171.425C1173.66 171.779 1172.9 172.101 1172.2 172.432C1169.4 173.738 1167.29 175.128 1166.13 178.847C1165.49 181.036 1166.41 183.372 1167.59 185.3Z" fill="#2783FF"/>
<path opacity="0.1" d="M1198.35 169.282C1198.13 169.652 1198.05 170.088 1198.13 170.51C1198.21 170.933 1198.43 171.314 1198.76 171.587C1199.25 171.936 1199.83 172.143 1200.43 172.186C1200.86 172.242 1201.3 172.276 1201.73 172.286C1202.32 172.33 1202.91 172.227 1203.45 171.986C1203.56 171.934 1203.66 171.869 1203.75 171.794C1203.56 171.586 1203.39 171.357 1203.24 171.11C1203.14 171.187 1203.04 171.172 1202.64 171.11C1201.92 171.072 1201.2 170.948 1200.5 170.741C1200.13 170.649 1199.79 170.457 1199.52 170.187C1199.25 169.916 1199.06 169.576 1198.97 169.205L1198.35 169.282Z" fill="black"/>
<path opacity="0.1" d="M1213.47 204.784C1212.91 205.132 1212.29 205.364 1211.64 205.467C1211.18 205.59 1210.7 205.667 1210.22 205.698C1209.01 205.645 1207.82 205.311 1206.76 204.722L1213.47 204.784Z" fill="black"/>
<path d="M881.008 285.852L881.407 285.744L882.443 287.965L890.986 306.403C890.616 306.867 890.278 307.355 889.973 307.863C889.865 308.04 889.758 308.217 889.658 308.424C889.558 308.631 889.451 308.839 889.359 309.054C889.32 309.122 889.289 309.194 889.266 309.269C889.243 309.315 889.251 309.315 889.205 309.423C889.159 309.53 889.121 309.646 889.082 309.753C889.024 309.831 888.993 309.903 888.93 309.974L888.921 310.007L888.883 310.099L888.798 310.402V310.429V310.537L888.752 310.767C888.752 310.774 888.752 310.781 888.751 310.787C888.752 310.791 888.752 310.794 888.752 310.798C888.752 310.802 888.751 310.805 888.751 310.809C888.751 310.815 888.752 310.822 888.752 310.829V310.836V310.859V310.867V310.898C888.756 310.918 888.756 310.939 888.752 310.959V311.021V311.067V311.167C888.731 311.422 888.731 311.679 888.752 311.935V312.127C888.322 312.004 887.847 311.551 887.463 310.429C887.338 310.06 887.273 309.674 887.271 309.284C887.198 306.883 889.221 304.348 889.541 303.948C889.555 303.93 889.566 303.916 889.574 303.907L882.052 288.042L881.008 285.852Z" fill="url(#paint24_linear)"/>
<path d="M890.725 314.524H890.771C890.914 314.467 891.046 314.387 891.162 314.286L891.143 314.317C891.15 314.312 891.156 314.306 891.162 314.301L891.047 314.486L890.978 314.593C890.94 314.649 890.907 314.709 890.878 314.77C890.807 314.88 890.747 314.995 890.684 315.115C890.672 315.138 890.66 315.161 890.648 315.185C890.503 315.476 890.392 315.783 890.318 316.099C890.317 316.107 890.316 316.114 890.316 316.122C890.316 316.13 890.317 316.137 890.318 316.145C890.318 316.146 890.317 316.148 890.317 316.149C890.317 316.15 890.318 316.152 890.318 316.153C890.318 316.154 890.318 316.155 890.317 316.157C890.318 316.158 890.318 316.159 890.318 316.16C890.315 316.176 890.315 316.192 890.316 316.208C890.317 316.213 890.317 316.217 890.318 316.222C890.321 316.229 890.323 316.237 890.323 316.245C890.323 316.253 890.321 316.261 890.318 316.268C890.125 315.981 889.877 315.736 889.589 315.546C889.359 315.409 889.172 315.211 889.048 314.973C888.925 314.736 888.87 314.468 888.89 314.201C888.897 313.895 888.954 313.591 889.059 313.303C889.189 313.626 889.376 313.922 889.612 314.178L889.727 314.286C889.82 314.367 889.927 314.432 890.042 314.478C890.087 314.497 890.133 314.512 890.18 314.524H890.257C890.41 314.563 890.571 314.563 890.725 314.524Z" fill="url(#paint25_linear)"/>
<path d="M920.244 577.996C920.244 577.996 931.756 579.41 937.306 577.489C942.855 575.569 935.586 585.748 928.042 588.161C922.707 589.717 917.211 590.65 911.663 590.942L902.79 582.591L893.373 583.313L895.015 592.532L892.091 592.809L890.955 580.716L920.244 577.996Z" fill="#444053"/>
<path opacity="0.1" d="M920.244 577.996C920.244 577.996 931.756 579.41 937.306 577.489C942.855 575.569 935.586 585.748 928.042 588.161C922.707 589.717 917.211 590.65 911.663 590.942L902.79 582.591L893.373 583.313L895.015 592.532L892.091 592.809L890.955 580.716L920.244 577.996Z" fill="black"/>
<path d="M936.83 599.108C936.83 599.108 950.607 602.128 957.553 600.43C964.499 598.732 954.536 610.256 945.096 612.33C935.655 614.405 924.895 613.867 924.895 613.867L915.124 602.689L903.611 602.496L904.555 613.905H900.971V599.108H936.83Z" fill="#444053"/>
<path opacity="0.1" d="M936.83 599.108C936.83 599.108 950.607 602.128 957.553 600.43C964.499 598.732 954.536 610.256 945.096 612.33C935.655 614.405 924.895 613.867 924.895 613.867L915.124 602.689L903.611 602.496L904.555 613.905H900.971V599.108H936.83Z" fill="black"/>
<path d="M885.866 336.673C885.866 336.673 862.273 362.933 876.426 392.596C876.426 392.596 877.193 397.89 876.618 398.835C876.042 399.78 878.882 412.057 878.882 412.057C878.882 412.057 879.266 434.337 878.882 438.132C878.498 441.927 878.114 443.986 878.114 443.986C878.114 443.986 872.842 485.143 874.538 497.435C876.234 509.727 876.994 531.631 876.994 531.631L883.978 590.581L920.221 583.781L903.796 502.913L903.228 488.554C903.228 488.554 910.028 470.983 907.004 462.102C903.98 453.221 907.771 340.046 907.771 340.046L885.866 336.673Z" fill="#303D5C"/>
<path opacity="0.05" d="M885.866 336.673C885.866 336.673 862.273 362.933 876.426 392.596C876.426 392.596 877.193 397.89 876.618 398.835C876.042 399.78 878.882 412.057 878.882 412.057C878.882 412.057 879.266 434.337 878.882 438.132C878.498 441.927 878.114 443.986 878.114 443.986C878.114 443.986 872.842 485.143 874.538 497.435C876.234 509.727 876.994 531.631 876.994 531.631L883.978 590.581L920.221 583.781L903.796 502.913L903.228 488.554C903.228 488.554 910.028 470.983 907.004 462.102C903.98 453.221 907.771 340.046 907.771 340.046L885.866 336.673Z" fill="black"/>
<path d="M903.228 463.631C907.38 471.567 904.763 490.835 904.763 490.835C899.29 495.56 902.307 536.747 902.307 536.747C902.307 536.747 898.53 577.374 896.082 582.076C893.634 586.778 894.002 606.261 894.002 606.261C921.748 611.362 939.869 600.407 939.869 600.407C939.869 600.407 930.997 580.186 930.812 579.248C930.705 578.718 929.531 580.155 929.178 580.57C929.362 580.316 929.845 579.656 930.812 578.265C934.589 572.972 930.812 562.769 930.812 562.769C930.812 562.769 935.533 529.894 933.268 526.867C931.004 523.84 933.645 512.7 934.965 510.058C936.285 507.415 937.981 501.176 937.981 498.534C938.091 496.479 938.473 494.449 939.117 492.495C944.965 484.174 943.837 470.384 943.837 470.384C943.837 470.384 943.461 450.547 946.854 434.867C950.246 419.186 942.617 374.78 942.617 374.78C942.617 374.78 945.157 366.091 943.269 362.879C942.417 361.435 942.502 358.031 942.901 354.736C943.361 350.702 944.213 346.822 944.213 346.822L892.72 337.672C891.638 339.478 890.648 341.229 889.735 342.912C872.703 374.411 884.186 386.12 884.186 386.12L895.115 419.839C895.115 419.839 899.06 455.702 903.228 463.631Z" fill="#303D5C"/>
<path d="M984.961 217.068L992.321 223.322C992.321 223.322 993.764 222.17 995.698 220.441C1000.3 216.277 1007.76 208.74 1004.97 205.544C1001.13 201.18 997.295 204.008 997.057 204.207C997.471 203.77 1006.01 194.604 1002.51 195.342C999.014 196.079 992.321 204.038 992.321 204.038L987.033 213.388L984.961 217.068Z" fill="#EFB7B9"/>
<path d="M886.242 319.103L894.923 321.746L888.322 333.27L880.77 323.444L886.242 319.103Z" fill="#EFB7B9"/>
<path d="M906.628 210.838C920.286 210.838 931.357 199.755 931.357 186.084C931.357 172.413 920.286 161.33 906.628 161.33C892.97 161.33 881.898 172.413 881.898 186.084C881.898 199.755 892.97 210.838 906.628 210.838Z" fill="#EFB7B9"/>
<path d="M921.165 195.157C921.165 195.157 898.699 230.844 920.029 233.917C941.358 236.99 891.339 258.671 891.339 258.671L872.65 239.779C872.65 239.779 892.091 206.144 889.075 193.298C886.058 180.452 921.165 195.157 921.165 195.157Z" fill="#EFB7B9"/>
<path opacity="0.1" d="M889.712 342.966C894.701 344.479 899.785 345.658 904.932 346.492C904.932 346.492 932.747 358.853 942.878 354.789C943.338 350.756 944.19 346.876 944.19 346.876L892.697 337.726C891.615 339.531 890.617 341.283 889.712 342.966Z" fill="black"/>
<path d="M864.161 249.566L869.188 259.977L874.868 271.7L875.635 273.375L882.367 287.973L890.924 306.473C890.924 306.473 887.9 310.06 888.844 312.895C889.727 315.546 891.109 314.394 891.285 314.232C891.124 314.455 889.297 316.913 890.924 317.997C892.552 319.08 892.053 321.585 892.053 321.585C892.053 321.585 885.068 333.109 883.748 337.265C882.428 341.421 904.893 345.017 904.893 345.017C904.893 345.017 936.791 359.184 944.72 352.193C952.648 345.201 944.72 312.327 944.72 312.327C944.72 312.327 944.72 293.435 942.64 291.737C940.56 290.039 941.55 276.94 941.55 276.94C947.022 266.953 943.246 261.26 943.246 261.26L944.781 235.568C944.781 235.568 942.325 232.918 940.437 232.734C939.245 232.62 938.045 232.62 936.853 232.734C936.853 232.734 935.855 232.396 934.42 231.965C931.396 231.105 926.376 229.914 924.58 230.813C921.94 232.134 904.955 228.731 904.955 228.731C897.634 227.646 890.26 226.954 882.865 226.656C880.34 226.492 877.806 226.767 875.374 227.471C869.234 229.369 868.144 233.832 868.144 233.832C868.144 233.832 868.912 237.612 865.88 242.521C862.848 247.431 864.161 249.566 864.161 249.566Z" fill="#2783FF"/>
<path opacity="0.1" d="M984.961 217.068L992.321 223.322C992.321 223.322 993.764 222.17 995.698 220.441C996.282 214.064 990.855 213.219 987.033 213.388L984.961 217.068Z" fill="black"/>
<path d="M941.55 235.399L944.758 235.592C944.758 235.592 952.303 236.529 954.736 234.262C957.169 231.996 965.873 231.243 965.873 231.243C965.873 231.243 968.329 226.326 970.969 224.82C973.609 223.314 980.033 220.472 980.179 218.958C980.325 217.445 982.635 214.618 982.635 214.618C982.635 214.618 996.788 211.214 994.716 222.362C992.644 233.509 981.185 243.136 981.185 243.136C981.185 243.136 979.865 249.374 975.52 250.888C971.176 252.401 943.054 265.623 938.526 262.22C933.998 258.816 941.55 235.399 941.55 235.399Z" fill="#2783FF"/>
<path opacity="0.1" d="M865.857 242.514C868.873 237.604 868.121 233.824 868.121 233.824C868.121 233.824 869.211 229.361 875.351 227.463C876.55 227.1 877.781 226.858 879.028 226.741C872.98 228.662 871.898 233.072 871.898 233.072C871.898 233.072 872.665 236.851 869.633 241.761C866.602 246.67 867.929 248.752 867.929 248.752L872.964 259.162L878.636 270.878L879.45 272.561L886.181 287.12L894.739 305.62C894.739 305.62 891.715 309.215 892.659 312.05C893.542 314.701 894.923 313.541 895.1 313.387C894.938 313.602 893.112 316.068 894.739 317.152C896.366 318.235 895.867 320.739 895.867 320.739C895.867 320.739 888.883 332.264 887.563 336.42C886.242 340.576 908.708 344.164 908.708 344.164C908.708 344.164 930.858 354.006 942.832 353.237C932.654 357.232 904.932 344.925 904.932 344.925C904.932 344.925 882.466 341.329 883.786 337.173C885.107 333.016 892.091 321.5 892.091 321.5C892.091 321.5 892.659 319.042 890.963 317.912C889.267 316.783 891.162 314.37 891.323 314.148C891.147 314.309 889.788 315.461 888.883 312.811C887.939 309.976 890.963 306.388 890.963 306.388L882.405 287.88L875.674 273.283L874.906 271.608L869.227 259.884L864.199 249.474C864.199 249.474 862.833 247.431 865.857 242.514Z" fill="black"/>
<path d="M867.592 246.731L864.199 249.566C863.584 251.43 862.623 253.161 861.367 254.668C859.479 256.75 854.383 277.34 854.383 277.34C854.598 277.815 854.709 278.331 854.709 278.853C854.709 279.375 854.598 279.891 854.383 280.367C853.615 281.903 855.918 284.146 855.918 284.146C855.918 284.146 857.046 283.77 855.15 285.844C853.255 287.919 856.854 290.393 856.854 290.393C856.854 290.393 872.327 316.829 875.536 319.664C878.744 322.499 881.952 329.866 881.952 329.866C881.952 329.866 888.676 319.31 890.257 319.111L883.656 304.191C883.656 304.191 879.12 283.401 875.727 279.606C872.335 275.811 877.424 262.781 877.424 262.781L867.592 246.731Z" fill="#2783FF"/>
<path opacity="0.1" d="M865.381 285.276C868.221 288.687 873.202 289.409 877.608 288.91C878.253 288.833 878.905 288.733 879.542 288.61C880.507 288.437 881.463 288.214 882.405 287.942C885.778 286.969 888.953 285.409 891.784 283.332C892.402 282.798 893.116 282.386 893.887 282.118C895.652 281.673 897.402 282.986 898.362 284.523C899.321 286.059 899.774 287.873 900.756 289.394C902.69 292.413 906.436 293.865 910.028 293.95C913.62 294.034 917.104 292.959 920.528 291.891C917.757 288.48 914.917 284.93 913.789 280.682C913.162 277.911 912.983 275.058 913.259 272.231C914.073 258.863 918.709 244.772 929.6 236.982C931.488 235.638 933.767 234.047 934.397 232.004C931.373 231.143 926.353 229.952 924.557 230.851C921.917 232.173 904.932 228.769 904.932 228.769C897.611 227.684 890.237 226.992 882.842 226.695C880.317 226.53 877.782 226.806 875.351 227.509C876.28 233.187 877.086 238.834 875.973 244.411C875.201 247.887 873.942 251.237 872.235 254.36C871.268 256.243 870.224 258.094 869.165 259.954C866.295 265.124 863.555 270.31 863.025 276.087C862.802 279.352 863.324 282.802 865.381 285.276Z" fill="black"/>
<path opacity="0.1" d="M902.706 311.858C901.232 311.666 899.743 311.167 898.285 311.474C897.045 311.844 895.911 312.505 894.977 313.402L904.678 313.456C907.173 313.456 910.934 313.61 912.845 311.843C911.095 310.106 905.2 312.181 902.706 311.858Z" fill="black"/>
<path d="M936.331 183.211C937.803 185.24 938.731 187.614 939.025 190.105C939.319 192.596 938.97 195.121 938.012 197.439C936.477 201.088 933.46 203.946 931.626 207.465C930.238 210.195 929.566 213.234 929.673 216.295C929.781 219.357 930.664 222.34 932.24 224.966C932.956 225.901 933.478 226.969 933.775 228.109C934.212 230.99 931.235 233.056 928.863 234.754C917.964 242.529 913.336 256.627 912.522 270.003C912.243 272.829 912.419 275.683 913.044 278.454C914.173 282.702 917.02 286.252 919.791 289.663C916.368 290.731 912.883 291.806 909.283 291.722C905.684 291.637 901.954 290.185 900.012 287.166C899.029 285.629 898.569 283.832 897.617 282.295C896.665 280.758 894.908 279.452 893.158 279.89C892.382 280.15 891.665 280.56 891.047 281.096C886.881 284.155 881.994 286.079 876.863 286.682C872.458 287.189 867.477 286.459 864.645 283.048C862.588 280.566 862.058 277.124 862.342 273.913C863.324 262.473 873.003 253.477 875.244 242.214C877.055 233.087 873.77 223.775 873.172 214.51C872.274 200.781 877.255 187.421 882.159 174.56C883.227 171.373 884.67 168.325 886.457 165.479C890.564 159.455 897.663 155.845 904.878 155.122C907.554 154.751 910.281 155.014 912.837 155.891C915.416 156.889 917.565 158.749 919.66 160.569C924.342 164.634 929.155 168.867 931.848 174.46C932.946 176.765 933.668 179.2 934.919 181.42L936.331 183.211Z" fill="#3F3D56"/>
<g opacity="0.1">
<path opacity="0.1" d="M931.879 178.194C930.651 175.973 929.937 173.515 928.809 171.233C927.761 169.105 926.445 167.12 924.895 165.325C927.709 167.946 930.047 171.037 931.802 174.46C932.869 176.672 933.583 179.07 934.742 181.228L933.253 179.968C933.643 180.486 933.992 181.033 934.297 181.605C933.353 180.572 932.541 179.427 931.879 178.194V178.194Z" fill="black"/>
<path opacity="0.1" d="M873.824 283.409C878.956 282.814 883.844 280.892 888.008 277.831C888.628 277.298 889.344 276.888 890.118 276.625C891.876 276.179 893.626 277.493 894.585 279.03C894.785 279.352 894.961 279.698 895.13 280.044C894.508 279.76 893.808 279.692 893.142 279.852C892.367 280.111 891.649 280.521 891.032 281.058C886.866 284.116 881.979 286.041 876.848 286.643C872.442 287.15 867.461 286.421 864.629 283.009C864.276 282.569 863.963 282.099 863.693 281.603C866.548 283.44 870.363 283.808 873.824 283.409Z" fill="black"/>
<path opacity="0.1" d="M906.252 288.464C909.836 288.549 913.328 287.473 916.751 286.405C913.981 282.994 911.141 279.445 910.013 275.196C909.385 272.426 909.206 269.572 909.483 266.745C910.297 253.369 914.932 239.272 925.831 231.497C928.203 229.799 931.204 227.732 930.743 224.843C930.441 223.708 929.919 222.643 929.208 221.709C927.631 219.084 926.747 216.1 926.638 213.039C926.529 209.977 927.2 206.938 928.587 204.207C930.429 200.689 933.422 197.831 934.98 194.174C935.81 192.159 936.182 189.985 936.071 187.809C935.959 185.633 935.367 183.509 934.335 181.589C934.854 182.137 935.408 182.65 935.993 183.126C936.412 183.713 936.869 184.272 937.359 184.801C938.391 186.721 938.983 188.847 939.094 191.025C939.204 193.203 938.829 195.378 937.996 197.393C936.461 201.042 933.445 203.9 931.611 207.419C930.222 210.149 929.551 213.187 929.658 216.249C929.765 219.31 930.649 222.294 932.225 224.92C932.94 225.855 933.462 226.923 933.76 228.062C934.197 230.943 931.219 233.01 928.848 234.708C917.949 242.483 913.321 256.581 912.507 269.956C912.227 272.783 912.404 275.637 913.029 278.407C914.157 282.656 917.005 286.205 919.775 289.617C916.352 290.684 912.868 291.76 909.268 291.676C905.668 291.591 901.938 290.139 899.996 287.12C899.866 286.92 899.751 286.712 899.636 286.505C901.622 287.749 903.909 288.426 906.252 288.464V288.464Z" fill="black"/>
</g>
<path opacity="0.2" d="M792.659 113.735V129.869H722.676C724.81 126.909 726.99 123.989 729.216 121.111C729.523 120.711 729.83 120.343 730.152 119.92L733.429 115.794L733.882 115.234L735.072 113.782L792.659 113.735Z" fill="#2783FF"/>
<path opacity="0.2" d="M937.459 113.735H863.923V129.854H937.459V113.735Z" fill="#2783FF"/>
<path opacity="0.2" d="M1106.35 113.735H1032.82V129.854H1106.35V113.735Z" fill="#2783FF"/>
<path opacity="0.2" d="M1249.19 113.735H1175.66V129.854H1249.19V113.735Z" fill="#2783FF"/>
</g>
<path opacity="0.1" d="M311 530.796C311.003 533.606 310.71 536.409 310.124 539.158C309.927 540.078 309.698 540.98 309.438 541.864C309.116 542.966 308.747 544.034 308.332 545.069C308.122 545.596 307.899 546.113 307.664 546.622C307.672 549.489 307.161 552.334 306.156 555.018C304.377 559.74 301.138 563.592 297.084 565.843C294.559 567.255 291.715 567.998 288.823 568H192.716C187.579 568 182.818 566.17 178.914 563.051C177.773 562.135 176.713 561.123 175.745 560.025C174.398 558.493 173.229 556.814 172.26 555.018C170.012 550.874 168.716 545.996 168.716 540.774C166.367 536.006 165 530.29 165 524.139C165 516.386 167.177 509.316 170.753 503.961C171.49 502.855 172.307 501.803 173.196 500.814C174.055 499.857 174.989 498.971 175.99 498.165C176.775 497.532 177.603 496.957 178.469 496.442C178.827 496.231 179.187 496.032 179.553 495.847C179.873 495.681 180.198 495.527 180.527 495.384C180.921 495.21 181.32 495.05 181.724 494.905C182.128 494.76 182.527 494.633 182.921 494.524C183.502 494.361 184.092 494.229 184.687 494.13C185.183 494.044 185.679 493.981 186.174 493.94C186.569 493.907 186.966 493.889 187.367 493.884C187.44 493.884 187.511 493.884 187.584 493.884C188.025 493.884 188.464 493.905 188.899 493.939C188.945 493.832 188.995 493.725 189.04 493.618C189.214 493.235 189.394 492.855 189.575 492.48C189.575 492.476 189.575 492.473 189.575 492.47C189.606 492.405 189.637 492.345 189.669 492.277C189.815 491.971 189.968 491.668 190.124 491.368C190.196 491.228 190.266 491.09 190.339 490.952C190.356 490.92 190.372 490.889 190.39 490.857C190.465 490.714 190.54 490.572 190.617 490.431C191 489.724 191.398 489.028 191.811 488.343C191.847 488.285 191.88 488.226 191.916 488.169C191.981 488.063 192.04 487.958 192.112 487.853C192.283 487.575 192.459 487.298 192.636 487.023C192.76 486.829 192.884 486.636 193.018 486.444C193.34 485.96 193.671 485.481 194.01 485.009C194.349 484.537 194.701 484.065 195.066 483.592C195.116 483.528 195.165 483.468 195.217 483.4L195.746 482.733L195.82 482.642L196.012 482.407C196.296 482.06 196.587 481.717 196.879 481.378C198.353 479.676 199.939 478.076 201.627 476.588C201.693 476.527 201.76 476.464 201.825 476.411C202.14 476.137 202.46 475.866 202.78 475.6C204.523 474.151 206.362 472.823 208.285 471.624C208.416 471.539 208.55 471.457 208.685 471.375C210.384 470.335 212.142 469.397 213.952 468.567C214.944 468.109 215.946 467.686 216.958 467.297C217.63 467.041 218.304 466.8 218.987 466.571C220.043 466.221 221.113 465.905 222.195 465.62C225.371 464.794 228.619 464.281 231.894 464.089C232.885 464.03 233.888 464 234.902 464C239.814 463.996 244.699 464.711 249.404 466.124C249.447 466.206 249.512 466.274 249.591 466.322C249.671 466.37 249.762 466.395 249.854 466.395H250.272C250.453 466.452 250.633 466.511 250.813 466.571C251.824 466.907 252.82 467.276 253.802 467.676L254.05 467.778C258.739 469.711 263.108 472.345 267.011 475.589C267.301 475.828 267.587 476.071 267.869 476.318C268.211 476.064 268.559 475.821 268.913 475.589C270.258 474.697 271.711 473.98 273.236 473.454C276.36 472.376 279.727 472.223 282.935 473.014C287.056 474.027 290.787 476.539 293.801 480.112C295.043 481.596 296.135 483.202 297.06 484.903C297.128 485.028 297.196 485.152 297.262 485.276C298.076 486.817 298.77 488.418 299.337 490.066C299.358 490.126 299.379 490.191 299.398 490.245C299.929 491.811 300.356 493.411 300.674 495.033C300.689 495.115 300.707 495.199 300.721 495.282C301.022 496.865 301.226 498.464 301.331 500.072C301.331 500.13 301.331 500.189 301.341 500.247C301.393 501.081 301.42 501.923 301.421 502.775C301.421 503.537 301.399 504.292 301.357 505.039C301.357 505.122 301.347 505.207 301.341 505.287C301.33 505.505 301.314 505.722 301.298 505.939C302.254 506.833 303.14 507.8 303.948 508.831C304.309 509.289 304.659 509.764 304.997 510.254C306.037 511.768 306.941 513.371 307.699 515.044C309.795 519.636 311 525.026 311 530.796Z" fill="#2783FF"/>
<path opacity="0.1" d="M126 409.609C126.002 411.15 125.841 412.686 125.52 414.192C125.412 414.697 125.287 415.191 125.144 415.675C124.968 416.279 124.766 416.865 124.538 417.432C124.423 417.721 124.301 418.004 124.172 418.283C124.177 419.855 123.897 421.414 123.346 422.885C122.371 425.473 120.596 427.584 118.375 428.818C116.991 429.592 115.433 429.999 113.848 430H61.1867C58.372 430 55.7631 428.997 53.6243 427.287C52.9989 426.786 52.4178 426.231 51.8875 425.629C51.1497 424.79 50.5092 423.869 49.9782 422.885C48.7461 420.614 48.0363 417.94 48.0363 415.078C46.7492 412.465 46 409.332 46 405.961C46 401.712 47.1927 397.837 49.1523 394.902C49.5564 394.295 50.0038 393.719 50.491 393.177C50.9616 392.652 51.4736 392.167 52.022 391.725C52.4519 391.378 52.9059 391.063 53.3804 390.781C53.5767 390.665 53.7737 390.556 53.9741 390.455C54.1497 390.364 54.3277 390.279 54.5079 390.201C54.7239 390.105 54.9426 390.018 55.164 389.938C55.3855 389.859 55.604 389.789 55.8195 389.729C56.1381 389.64 56.4611 389.568 56.7874 389.513C57.0591 389.466 57.3308 389.432 57.6024 389.409C57.8184 389.392 58.0362 389.381 58.2559 389.379C58.2959 389.379 58.3346 389.379 58.3747 389.379C58.6165 389.379 58.857 389.39 59.0954 389.409C59.1205 389.35 59.1477 389.291 59.1728 389.233C59.2679 389.023 59.3664 388.815 59.4656 388.609C59.4658 388.607 59.4658 388.605 59.4656 388.604C59.4825 388.568 59.4995 388.535 59.5172 388.498C59.5973 388.33 59.6809 388.164 59.7664 388C59.8058 387.923 59.8446 387.848 59.8846 387.772C59.8935 387.754 59.9023 387.737 59.9125 387.72C59.9532 387.641 59.9947 387.564 60.0368 387.486C60.2464 387.099 60.4645 386.717 60.6909 386.342C60.7106 386.31 60.7289 386.278 60.7486 386.246C60.7839 386.189 60.8165 386.131 60.8559 386.073C60.9496 385.921 61.0461 385.769 61.1432 385.619C61.2111 385.512 61.2791 385.406 61.3524 385.301C61.529 385.036 61.7102 384.773 61.8958 384.515C62.0815 384.256 62.2744 383.997 62.4745 383.738C62.5017 383.703 62.5288 383.67 62.5574 383.633L62.8474 383.267L62.8875 383.217L62.9927 383.088C63.1483 382.898 63.3079 382.71 63.4682 382.525C64.2754 381.592 65.1445 380.715 66.0696 379.899C66.1056 379.866 66.1423 379.831 66.1783 379.802C66.3508 379.652 66.5261 379.503 66.7013 379.358C67.6564 378.564 68.6642 377.835 69.7177 377.178C69.7897 377.132 69.8631 377.087 69.9371 377.042C70.8677 376.472 71.8314 375.958 72.8231 375.503C73.3665 375.252 73.9155 375.02 74.4702 374.807C74.8384 374.667 75.2079 374.534 75.5821 374.409C76.1608 374.218 76.7467 374.044 77.3399 373.888C79.0797 373.435 80.8597 373.154 82.6541 373.049C83.1975 373.016 83.747 373 84.3026 373C86.9938 372.998 89.6708 373.39 92.2488 374.164C92.2724 374.209 92.3079 374.247 92.3514 374.273C92.3949 374.299 92.4447 374.313 92.4954 374.312H92.7243C92.8234 374.344 92.9219 374.376 93.0211 374.409C93.5749 374.593 94.1208 374.795 94.6587 375.015L94.7945 375.07C97.3636 376.13 99.758 377.574 101.896 379.352C102.055 379.483 102.212 379.616 102.366 379.751C102.554 379.612 102.745 379.479 102.938 379.352C103.676 378.863 104.472 378.47 105.308 378.181C107.019 377.591 108.864 377.507 110.622 377.94C112.88 378.495 114.925 379.873 116.576 381.831C117.257 382.644 117.855 383.524 118.361 384.457C118.399 384.525 118.436 384.593 118.472 384.661C118.918 385.505 119.298 386.383 119.609 387.286C119.621 387.319 119.632 387.355 119.642 387.385C119.934 388.243 120.167 389.119 120.342 390.009C120.35 390.054 120.36 390.099 120.368 390.145C120.533 391.012 120.644 391.889 120.702 392.77C120.702 392.802 120.702 392.834 120.707 392.866C120.736 393.323 120.751 393.785 120.751 394.252C120.751 394.669 120.739 395.083 120.716 395.492C120.716 395.538 120.711 395.584 120.707 395.629C120.701 395.748 120.693 395.867 120.684 395.986C121.208 396.476 121.693 397.006 122.136 397.571C122.334 397.822 122.525 398.082 122.711 398.351C123.281 399.18 123.776 400.059 124.191 400.976C125.34 403.493 126 406.447 126 409.609Z" fill="#2783FF"/>
<path opacity="0.1" d="M1641 212.951C1641 215.22 1640.74 217.484 1640.21 219.704C1640.04 220.448 1639.83 221.176 1639.6 221.89C1639.31 222.78 1638.98 223.643 1638.61 224.479C1638.42 224.904 1638.22 225.322 1638.01 225.733C1638.01 228.049 1637.56 230.347 1636.65 232.515C1635.06 236.329 1632.15 239.44 1628.51 241.258C1626.25 242.399 1623.7 242.998 1621.1 243H1534.87C1530.26 243 1525.99 241.522 1522.48 239.002C1521.46 238.263 1520.51 237.445 1519.64 236.559C1518.43 235.322 1517.38 233.965 1516.51 232.515C1514.5 229.168 1513.33 225.227 1513.33 221.01C1511.23 217.159 1510 212.542 1510 207.574C1510 201.312 1511.95 195.601 1515.16 191.277C1515.82 190.383 1516.56 189.533 1517.35 188.734C1518.12 187.961 1518.96 187.246 1519.86 186.595C1520.57 186.084 1521.31 185.619 1522.09 185.203C1522.41 185.033 1522.73 184.872 1523.06 184.723C1523.35 184.589 1523.64 184.464 1523.93 184.348C1524.29 184.208 1524.64 184.079 1525.01 183.962C1525.37 183.845 1525.73 183.742 1526.08 183.654C1526.6 183.522 1527.13 183.416 1527.66 183.336C1528.11 183.266 1528.55 183.215 1529 183.182C1529.35 183.156 1529.71 183.141 1530.07 183.137C1530.13 183.137 1530.2 183.137 1530.26 183.137C1530.66 183.137 1531.05 183.154 1531.44 183.181C1531.48 183.095 1531.53 183.008 1531.57 182.922C1531.73 182.613 1531.89 182.306 1532.05 182.003C1532.05 182 1532.05 181.997 1532.05 181.995C1532.08 181.943 1532.11 181.894 1532.13 181.839C1532.27 181.592 1532.4 181.347 1532.54 181.105C1532.61 180.992 1532.67 180.881 1532.74 180.769C1532.75 180.743 1532.77 180.718 1532.78 180.692C1532.85 180.577 1532.92 180.462 1532.99 180.348C1533.33 179.777 1533.69 179.215 1534.06 178.662C1534.09 178.614 1534.12 178.567 1534.15 178.521C1534.21 178.436 1534.26 178.351 1534.33 178.266C1534.48 178.041 1534.64 177.818 1534.8 177.596C1534.91 177.439 1535.02 177.283 1535.14 177.128C1535.43 176.737 1535.73 176.35 1536.03 175.969C1536.33 175.587 1536.65 175.206 1536.98 174.825C1537.02 174.772 1537.07 174.724 1537.11 174.669L1537.59 174.13L1537.65 174.057L1537.83 173.867C1538.08 173.587 1538.34 173.31 1538.6 173.036C1539.93 171.661 1541.35 170.369 1542.86 169.167C1542.92 169.118 1542.98 169.067 1543.04 169.025C1543.32 168.803 1543.61 168.584 1543.9 168.369C1545.46 167.199 1547.11 166.126 1548.84 165.157C1548.96 165.089 1549.08 165.023 1549.2 164.957C1550.72 164.117 1552.3 163.359 1553.92 162.688C1554.81 162.319 1555.71 161.977 1556.62 161.663C1557.22 161.456 1557.83 161.261 1558.44 161.077C1559.39 160.794 1560.35 160.538 1561.32 160.309C1564.17 159.641 1567.08 159.227 1570.02 159.072C1570.91 159.024 1571.81 159 1572.72 159C1577.13 158.996 1581.51 159.574 1585.73 160.715C1585.77 160.782 1585.83 160.837 1585.9 160.876C1585.97 160.914 1586.05 160.934 1586.14 160.934H1586.51C1586.67 160.98 1586.83 161.028 1587 161.077C1587.9 161.348 1588.8 161.646 1589.68 161.969L1589.9 162.051C1594.11 163.613 1598.03 165.74 1601.53 168.36C1601.79 168.553 1602.05 168.75 1602.3 168.949C1602.61 168.744 1602.92 168.547 1603.24 168.36C1604.44 167.64 1605.75 167.06 1607.12 166.636C1609.92 165.765 1612.94 165.642 1615.82 166.281C1619.52 167.099 1622.86 169.128 1625.57 172.013C1626.68 173.213 1627.66 174.509 1628.49 175.884C1628.55 175.984 1628.61 176.084 1628.67 176.185C1629.4 177.429 1630.03 178.723 1630.54 180.054C1630.55 180.102 1630.57 180.154 1630.59 180.198C1631.07 181.463 1631.45 182.755 1631.74 184.065C1631.75 184.132 1631.76 184.199 1631.78 184.266C1632.05 185.544 1632.23 186.837 1632.32 188.135C1632.32 188.182 1632.32 188.229 1632.33 188.277C1632.38 188.95 1632.4 189.63 1632.4 190.318C1632.4 190.934 1632.39 191.543 1632.35 192.147C1632.35 192.214 1632.34 192.282 1632.33 192.347C1632.32 192.523 1632.31 192.699 1632.29 192.873C1633.15 193.596 1633.95 194.377 1634.67 195.21C1635 195.58 1635.31 195.963 1635.61 196.359C1636.55 197.582 1637.36 198.876 1638.04 200.228C1639.92 203.937 1641 208.291 1641 212.951Z" fill="#2783FF"/>
<path opacity="0.1" d="M1576 57.9753C1576 59.1102 1575.87 60.2422 1575.61 61.3521C1575.52 61.7238 1575.42 62.0881 1575.3 62.4451C1575.16 62.89 1575 63.3214 1574.81 63.7393C1574.72 63.952 1574.62 64.1611 1574.51 64.3666C1574.52 65.5245 1574.29 66.6734 1573.84 67.7574C1573.05 69.6644 1571.61 71.22 1569.8 72.1288C1568.68 72.6993 1567.41 72.9992 1566.13 73H1523.34C1521.05 73 1518.93 72.2608 1517.19 71.0012C1516.69 70.6315 1516.21 70.2227 1515.78 69.7793C1515.18 69.1608 1514.66 68.4825 1514.23 67.7574C1513.23 66.0838 1512.65 64.1136 1512.65 62.0049C1511.61 60.0794 1511 57.771 1511 55.287C1511 52.1561 1511.97 49.3007 1513.56 47.1383C1513.89 46.6913 1514.25 46.2665 1514.65 45.8672C1515.03 45.4807 1515.45 45.1229 1515.89 44.7973C1516.24 44.542 1516.61 44.3095 1517 44.1017C1517.16 44.0164 1517.32 43.9361 1517.48 43.8614C1517.62 43.7944 1517.77 43.7321 1517.91 43.6742C1518.09 43.6039 1518.27 43.5395 1518.45 43.481C1518.63 43.4224 1518.8 43.3711 1518.98 43.3269C1519.24 43.2612 1519.5 43.2081 1519.76 43.1678C1519.99 43.1332 1520.21 43.1076 1520.43 43.0911C1520.6 43.078 1520.78 43.0705 1520.96 43.0685C1520.99 43.0685 1521.02 43.0685 1521.05 43.0685C1521.25 43.0685 1521.45 43.077 1521.64 43.0906C1521.66 43.0474 1521.68 43.0042 1521.7 42.9611C1521.78 42.8065 1521.86 42.653 1521.94 42.5014C1521.94 42.5001 1521.94 42.4987 1521.94 42.4974C1521.95 42.4713 1521.97 42.4472 1521.98 42.4196C1522.05 42.2962 1522.12 42.1737 1522.19 42.0523C1522.22 41.9961 1522.25 41.9404 1522.28 41.8847C1522.29 41.8716 1522.3 41.8591 1522.3 41.846C1522.34 41.7883 1522.37 41.7311 1522.4 41.6739C1522.58 41.3885 1522.75 41.1075 1522.94 40.8308C1522.95 40.8072 1522.97 40.7836 1522.98 40.7606C1523.01 40.7179 1523.04 40.6753 1523.07 40.6331C1523.15 40.5207 1523.22 40.4088 1523.3 40.2979C1523.36 40.2196 1523.41 40.1413 1523.47 40.064C1523.62 39.8683 1523.76 39.6751 1523.92 39.4844C1524.07 39.2937 1524.22 39.103 1524.39 38.9123C1524.41 38.8862 1524.43 38.8621 1524.45 38.8345L1524.69 38.5651L1524.72 38.5284L1524.81 38.4336C1524.93 38.2936 1525.06 38.1551 1525.19 38.0181C1525.85 37.3307 1526.55 36.6844 1527.31 36.0835C1527.34 36.0589 1527.37 36.0333 1527.39 36.0123C1527.54 35.9014 1527.68 35.792 1527.82 35.6846C1528.6 35.0995 1529.41 34.5629 1530.27 34.0787C1530.33 34.0446 1530.39 34.0115 1530.45 33.9784C1531.21 33.5583 1531.99 33.1795 1532.79 32.8442C1533.24 32.6596 1533.68 32.4886 1534.13 32.3314C1534.43 32.228 1534.73 32.1306 1535.04 32.0383C1535.51 31.8971 1535.98 31.7691 1536.46 31.6544C1537.88 31.3205 1539.32 31.1134 1540.78 31.0361C1541.22 31.0121 1541.67 31 1542.12 31C1544.31 30.9982 1546.48 31.2871 1548.58 31.8576C1548.6 31.8908 1548.63 31.9185 1548.66 31.9378C1548.7 31.9571 1548.74 31.9672 1548.78 31.967H1548.96C1549.04 31.9901 1549.12 32.0142 1549.2 32.0383C1549.65 32.1741 1550.1 32.3228 1550.54 32.4844L1550.65 32.5256C1552.73 33.3065 1554.68 34.37 1556.42 35.6801C1556.55 35.7767 1556.67 35.8749 1556.8 35.9746C1556.95 35.8719 1557.1 35.7737 1557.26 35.6801C1557.86 35.3199 1558.51 35.0302 1559.19 34.8179C1560.58 34.3827 1562.08 34.321 1563.51 34.6403C1565.34 35.0493 1567 36.064 1568.34 37.5067C1568.9 38.1063 1569.38 38.7545 1569.79 39.4418C1569.82 39.4919 1569.85 39.5421 1569.88 39.5923C1570.25 40.2145 1570.55 40.8613 1570.81 41.5269C1570.82 41.5509 1570.83 41.577 1570.83 41.5991C1571.07 42.2314 1571.26 42.8773 1571.4 43.5327C1571.41 43.5658 1571.42 43.5994 1571.42 43.633C1571.56 44.2722 1571.65 44.9183 1571.7 45.5676C1571.7 45.5912 1571.7 45.6147 1571.7 45.6383C1571.72 45.9749 1571.73 46.3151 1571.74 46.6591C1571.74 46.9668 1571.73 47.2716 1571.71 47.5734C1571.71 47.607 1571.7 47.6411 1571.7 47.6737C1571.69 47.7616 1571.69 47.8494 1571.68 47.9367C1572.11 48.298 1572.5 48.6886 1572.86 49.105C1573.02 49.29 1573.18 49.4815 1573.33 49.6796C1573.79 50.2908 1574.19 50.9381 1574.53 51.6141C1575.46 53.4684 1576 55.6453 1576 57.9753Z" fill="#2783FF"/>
<path opacity="0.1" d="M1733 151.39C1733 153.173 1732.82 154.952 1732.45 156.696C1732.32 157.28 1732.18 157.853 1732.02 158.414C1731.81 159.113 1731.58 159.791 1731.32 160.447C1731.19 160.782 1731.05 161.11 1730.9 161.433C1730.9 163.253 1730.58 165.058 1729.95 166.762C1728.83 169.758 1726.79 172.203 1724.23 173.631C1722.64 174.527 1720.85 174.999 1719.03 175H1658.46C1655.23 175 1652.23 173.838 1649.77 171.859C1649.05 171.278 1648.38 170.636 1647.77 169.939C1646.92 168.967 1646.19 167.901 1645.57 166.762C1644.16 164.132 1643.34 161.036 1643.34 157.722C1641.86 154.696 1641 151.069 1641 147.165C1641 142.245 1642.37 137.758 1644.63 134.36C1645.09 133.658 1645.6 132.99 1646.16 132.363C1646.71 131.755 1647.29 131.193 1647.93 130.681C1648.42 130.28 1648.94 129.915 1649.49 129.588C1649.71 129.454 1649.94 129.328 1650.17 129.211C1650.37 129.106 1650.58 129.008 1650.78 128.917C1651.03 128.806 1651.28 128.705 1651.54 128.613C1651.79 128.521 1652.04 128.44 1652.29 128.371C1652.66 128.268 1653.03 128.184 1653.41 128.121C1653.72 128.066 1654.03 128.026 1654.34 128C1654.59 127.98 1654.84 127.968 1655.09 127.965C1655.14 127.965 1655.18 127.965 1655.23 127.965C1655.51 127.965 1655.79 127.978 1656.06 127.999C1656.09 127.932 1656.12 127.864 1656.15 127.796C1656.26 127.553 1656.37 127.312 1656.49 127.074C1656.49 127.072 1656.49 127.069 1656.49 127.067C1656.5 127.026 1656.52 126.988 1656.54 126.945C1656.64 126.751 1656.73 126.559 1656.83 126.368C1656.88 126.28 1656.92 126.192 1656.97 126.104C1656.98 126.084 1656.99 126.064 1657 126.044C1657.05 125.953 1657.09 125.863 1657.14 125.773C1657.38 125.325 1657.63 124.883 1657.89 124.448C1657.92 124.411 1657.94 124.374 1657.96 124.338C1658 124.271 1658.04 124.204 1658.08 124.138C1658.19 123.961 1658.3 123.785 1658.41 123.611C1658.49 123.488 1658.57 123.365 1658.66 123.243C1658.86 122.936 1659.07 122.632 1659.28 122.333C1659.49 122.033 1659.72 121.733 1659.95 121.434C1659.98 121.393 1660.01 121.355 1660.04 121.311L1660.37 120.888L1660.42 120.83L1660.54 120.681C1660.72 120.461 1660.9 120.244 1661.09 120.028C1662.02 118.948 1663.02 117.933 1664.08 116.988C1664.12 116.95 1664.16 116.91 1664.21 116.876C1664.4 116.702 1664.6 116.53 1664.81 116.361C1665.9 115.442 1667.06 114.599 1668.28 113.838C1668.36 113.784 1668.44 113.732 1668.53 113.68C1669.6 113.02 1670.71 112.425 1671.85 111.898C1672.47 111.608 1673.1 111.339 1673.74 111.092C1674.16 110.93 1674.59 110.777 1675.02 110.632C1675.68 110.41 1676.36 110.209 1677.04 110.028C1679.04 109.504 1681.09 109.178 1683.15 109.057C1683.78 109.019 1684.41 109 1685.05 109C1688.14 108.997 1691.22 109.451 1694.19 110.348C1694.21 110.4 1694.25 110.443 1694.3 110.474C1694.35 110.504 1694.41 110.52 1694.47 110.52H1694.73C1694.85 110.556 1694.96 110.594 1695.07 110.632C1695.71 110.845 1696.34 111.079 1696.96 111.333L1697.11 111.397C1700.07 112.624 1702.82 114.296 1705.28 116.354C1705.46 116.506 1705.64 116.661 1705.82 116.817C1706.04 116.656 1706.26 116.502 1706.48 116.354C1707.33 115.788 1708.24 115.333 1709.2 115C1711.17 114.316 1713.29 114.219 1715.32 114.72C1717.91 115.363 1720.26 116.958 1722.16 119.225C1722.95 120.167 1723.63 121.186 1724.22 122.266C1724.26 122.344 1724.3 122.423 1724.34 122.502C1724.86 123.48 1725.29 124.496 1725.65 125.542C1725.66 125.58 1725.68 125.621 1725.69 125.656C1726.02 126.649 1726.29 127.664 1726.49 128.694C1726.5 128.746 1726.51 128.799 1726.52 128.852C1726.71 129.856 1726.84 130.872 1726.91 131.892C1726.91 131.929 1726.91 131.966 1726.91 132.003C1726.95 132.532 1726.96 133.067 1726.96 133.607C1726.96 134.091 1726.95 134.57 1726.92 135.044C1726.92 135.097 1726.92 135.15 1726.91 135.202C1726.91 135.34 1726.9 135.478 1726.89 135.615C1727.49 136.183 1728.05 136.796 1728.56 137.451C1728.78 137.741 1729 138.042 1729.22 138.354C1729.87 139.314 1730.44 140.331 1730.92 141.394C1732.24 144.307 1733 147.728 1733 151.39Z" fill="#2783FF"/>
<path d="M341.462 270.572C339.892 267.338 338.075 264.216 335.967 261.272L313.446 269.447C316.065 272.121 318.265 275.127 320.065 278.341L341.462 270.572V270.572ZM241.91 295.419L219.382 303.594C219.67 307.198 220.294 310.758 221.168 314.245L242.568 306.473C241.872 302.863 241.625 299.143 241.91 295.419Z" fill="#C22133"/>
<path d="M291.904 264.208C296.59 266.39 300.649 269.365 304.073 272.852L326.594 264.677C320.355 255.944 311.858 248.647 301.448 243.802C269.25 228.826 230.838 242.77 215.827 274.883C210.967 285.274 209.16 296.312 210.01 307L232.535 298.825C232.908 293.956 234.098 289.076 236.281 284.399C246.037 263.535 270.988 254.481 291.904 264.208Z" fill="#DB212E"/>
<path d="M315.926 305.262C315.566 310.127 314.335 315.006 312.145 319.687C302.393 340.555 277.438 349.609 256.525 339.881C251.832 337.697 247.743 334.746 244.332 331.251L221.856 339.41C228.081 348.142 236.568 355.442 246.985 360.291C279.183 375.264 317.588 361.32 332.602 329.203C337.466 318.819 339.259 307.782 338.402 297.103L315.926 305.262V305.262Z" fill="#DB212E"/>
<path d="M321.464 277.833L300.064 285.602C304.04 292.707 305.919 300.886 305.302 309.113L327.778 300.958C327.134 292.912 324.984 285.058 321.464 277.833V277.833ZM222.571 313.733L201.171 321.508C203.135 329.29 206.545 336.686 211.235 343.268L233.708 335.106C227.938 329.198 224.103 321.72 222.571 313.733Z" fill="#EB2126"/>
<path d="M338.2 264.654C337.49 263.505 336.753 262.373 335.968 261.272L313.447 269.448C314.438 270.46 315.35 271.533 316.22 272.634L338.2 264.654ZM241.824 299.931C241.769 298.433 241.793 296.928 241.909 295.421L219.381 303.596C219.498 305.035 219.68 306.465 219.896 307.891L241.823 299.931H241.824Z" fill="#AD213B"/>
<path d="M338.401 297.103L315.924 305.261C315.688 308.489 315.057 311.724 314.025 314.903L338.49 306.007C338.665 303.025 338.637 300.05 338.401 297.103ZM221.858 339.413C223.589 341.844 225.505 344.162 227.586 346.35L252.054 337.45C249.195 335.665 246.61 333.583 244.331 331.251L221.858 339.413Z" fill="#BA2133"/>
<path d="M337.243 386.951V388.975H343.128V406.902H345.356V388.975H351.245V386.951H337.243ZM323.727 388.974V395.586H329.212V397.611H323.727V406.901H321.499V386.953H333.243V388.974H323.727ZM313.532 386.953H315.76V406.905H313.532V386.953ZM305.568 406.902V397.496H295.624V406.902H293.396V386.951H295.624V395.475H305.568V386.951H307.796V406.902H305.568ZM281.802 407.216C279.087 407.216 276.656 406.047 275.086 404.453L276.574 402.798C278.086 404.251 279.831 405.195 281.887 405.195C284.544 405.195 286.203 403.882 286.203 401.773C286.203 399.919 285.089 398.866 281.431 397.553C277.116 396.015 275.659 394.619 275.659 391.74C275.659 388.547 278.172 386.635 281.915 386.635C284.602 386.635 286.316 387.436 288.003 388.776L286.573 390.513C285.116 389.316 283.773 388.66 281.774 388.66C279.029 388.66 277.887 390.027 277.887 391.597C277.887 393.252 278.631 394.189 282.631 395.618C287.06 397.211 288.431 398.695 288.431 401.66C288.431 404.795 285.973 407.216 281.802 407.216V407.216ZM266.057 406.902L258.715 396.016C258.228 395.274 257.57 394.275 257.313 393.762C257.313 394.504 257.371 397.011 257.371 398.122V406.902H253.425V386.951H257.254L264.343 397.496C264.83 398.238 265.484 399.236 265.741 399.749C265.741 399.007 265.687 396.501 265.687 395.386V386.951H269.629V406.902H266.057H266.057ZM234.518 406.902V386.951H248.404V390.856H238.518V394.306H244.263V398.18H238.518V402.998H248.832V406.902H234.518V406.902ZM223.152 399.835H218.751V406.903H214.75V386.951H223.495C227.265 386.951 230.381 389.034 230.381 393.277C230.381 397.896 227.296 399.835 223.152 399.835ZM223.354 390.829H218.751V395.958H223.409C225.267 395.958 226.268 395.1 226.268 393.363C226.268 391.626 225.123 390.829 223.354 390.829ZM201.557 407.216C196.326 407.216 192.755 403.397 192.755 396.955C192.755 390.513 196.385 386.635 201.616 386.635C206.816 386.635 210.387 390.458 210.387 396.9C210.387 403.342 206.757 407.216 201.557 407.216V407.216ZM201.53 390.598C198.729 390.598 196.872 392.852 196.872 396.9C196.872 400.948 198.815 403.253 201.616 403.253C204.416 403.253 206.271 401.003 206.271 396.955C206.271 392.906 204.33 390.598 201.53 390.598" fill="#241F21"/>
<path d="M243.438 171.781C243.438 168.469 244.083 165.49 245.375 162.844C246.688 160.198 248.5 158.156 250.812 156.719C253.146 155.281 255.802 154.562 258.781 154.562C263.385 154.562 267.104 156.156 269.938 159.344C272.792 162.531 274.219 166.771 274.219 172.062V172.469C274.219 175.76 273.583 178.719 272.312 181.344C271.062 183.948 269.26 185.979 266.906 187.438C264.573 188.896 261.885 189.625 258.844 189.625C254.26 189.625 250.542 188.031 247.688 184.844C244.854 181.656 243.438 177.438 243.438 172.188V171.781ZM249.25 172.469C249.25 176.219 250.115 179.229 251.844 181.5C253.594 183.771 255.927 184.906 258.844 184.906C261.781 184.906 264.115 183.76 265.844 181.469C267.573 179.156 268.438 175.927 268.438 171.781C268.438 168.073 267.552 165.073 265.781 162.781C264.031 160.469 261.698 159.312 258.781 159.312C255.927 159.312 253.625 160.448 251.875 162.719C250.125 164.99 249.25 168.24 249.25 172.469ZM286.938 155.188L287.125 159.438C289.708 156.188 293.083 154.562 297.25 154.562C304.396 154.562 308 158.594 308.062 166.656V189H302.281V166.625C302.26 164.188 301.698 162.385 300.594 161.219C299.51 160.052 297.812 159.469 295.5 159.469C293.625 159.469 291.979 159.969 290.562 160.969C289.146 161.969 288.042 163.281 287.25 164.906V189H281.469V155.188H286.938Z" fill="#253858"/>
</g>
<defs>
<linearGradient id="paint0_linear" x1="59.64" y1="45.35" x2="44" y2="60.99" gradientUnits="userSpaceOnUse">
<stop offset="0.18" stop-color="#0052CC"/>
<stop offset="1" stop-color="#2684FF"/>
</linearGradient>
<linearGradient id="paint1_linear" x1="1014.46" y1="2353.06" x2="1554.64" y2="2002.97" gradientUnits="userSpaceOnUse">
<stop offset="0.18" stop-color="#0052CC"/>
<stop offset="1" stop-color="#2684FF"/>
</linearGradient>
<linearGradient id="paint2_linear" x1="712.883" y1="200.312" x2="712.883" y2="166.001" gradientUnits="userSpaceOnUse">
<stop stop-color="#808080" stop-opacity="0.25"/>
<stop offset="0.54" stop-color="#808080" stop-opacity="0.12"/>
<stop offset="1" stop-color="#808080" stop-opacity="0.1"/>
</linearGradient>
<linearGradient id="paint3_linear" x1="15289.4" y1="8634.85" x2="15289.4" y2="7102.18" gradientUnits="userSpaceOnUse">
<stop stop-color="#808080" stop-opacity="0.25"/>
<stop offset="0.54" stop-color="#808080" stop-opacity="0.12"/>
<stop offset="1" stop-color="#808080" stop-opacity="0.1"/>
</linearGradient>
<linearGradient id="paint4_linear" x1="22826.1" y1="11676.6" x2="22826.1" y2="10143.9" gradientUnits="userSpaceOnUse">
<stop stop-color="#808080" stop-opacity="0.25"/>
<stop offset="0.54" stop-color="#808080" stop-opacity="0.12"/>
<stop offset="1" stop-color="#808080" stop-opacity="0.1"/>
</linearGradient>
<linearGradient id="paint5_linear" x1="30516.1" y1="12713.9" x2="30516.1" y2="11181.6" gradientUnits="userSpaceOnUse">
<stop stop-color="#808080" stop-opacity="0.25"/>
<stop offset="0.54" stop-color="#808080" stop-opacity="0.12"/>
<stop offset="1" stop-color="#808080" stop-opacity="0.1"/>
</linearGradient>
<linearGradient id="paint6_linear" x1="32576.9" y1="13728.1" x2="32576.9" y2="12195.7" gradientUnits="userSpaceOnUse">
<stop stop-color="#808080" stop-opacity="0.25"/>
<stop offset="0.54" stop-color="#808080" stop-opacity="0.12"/>
<stop offset="1" stop-color="#808080" stop-opacity="0.1"/>
</linearGradient>
<linearGradient id="paint7_linear" x1="35160.8" y1="11018.5" x2="35160.8" y2="9485.83" gradientUnits="userSpaceOnUse">
<stop stop-color="#808080" stop-opacity="0.25"/>
<stop offset="0.54" stop-color="#808080" stop-opacity="0.12"/>
<stop offset="1" stop-color="#808080" stop-opacity="0.1"/>
</linearGradient>
<linearGradient id="paint8_linear" x1="34637.7" y1="13216.2" x2="34637.7" y2="11683.9" gradientUnits="userSpaceOnUse">
<stop stop-color="#808080" stop-opacity="0.25"/>
<stop offset="0.54" stop-color="#808080" stop-opacity="0.12"/>
<stop offset="1" stop-color="#808080" stop-opacity="0.1"/>
</linearGradient>
<linearGradient id="paint9_linear" x1="17565.8" y1="8634.85" x2="17565.8" y2="7102.18" gradientUnits="userSpaceOnUse">
<stop stop-color="#808080" stop-opacity="0.25"/>
<stop offset="0.54" stop-color="#808080" stop-opacity="0.12"/>
<stop offset="1" stop-color="#808080" stop-opacity="0.1"/>
</linearGradient>
<linearGradient id="paint10_linear" x1="9768.64" y1="12432.9" x2="9768.64" y2="10900.2" gradientUnits="userSpaceOnUse">
<stop stop-color="#808080" stop-opacity="0.25"/>
<stop offset="0.54" stop-color="#808080" stop-opacity="0.12"/>
<stop offset="1" stop-color="#808080" stop-opacity="0.1"/>
</linearGradient>
<linearGradient id="paint11_linear" x1="16493.6" y1="10892.9" x2="16493.6" y2="9360.6" gradientUnits="userSpaceOnUse">
<stop stop-color="#808080" stop-opacity="0.25"/>
<stop offset="0.54" stop-color="#808080" stop-opacity="0.12"/>
<stop offset="1" stop-color="#808080" stop-opacity="0.1"/>
</linearGradient>
<linearGradient id="paint12_linear" x1="25190.7" y1="9956.67" x2="25190.7" y2="8424.33" gradientUnits="userSpaceOnUse">
<stop stop-color="#808080" stop-opacity="0.25"/>
<stop offset="0.54" stop-color="#808080" stop-opacity="0.12"/>
<stop offset="1" stop-color="#808080" stop-opacity="0.1"/>
</linearGradient>
<linearGradient id="paint13_linear" x1="33995.2" y1="8857.98" x2="33995.2" y2="7325.64" gradientUnits="userSpaceOnUse">
<stop stop-color="#808080" stop-opacity="0.25"/>
<stop offset="0.54" stop-color="#808080" stop-opacity="0.12"/>
<stop offset="1" stop-color="#808080" stop-opacity="0.1"/>
</linearGradient>
<linearGradient id="paint14_linear" x1="27392.3" y1="8634.85" x2="27392.3" y2="7102.18" gradientUnits="userSpaceOnUse">
<stop stop-color="#808080" stop-opacity="0.25"/>
<stop offset="0.54" stop-color="#808080" stop-opacity="0.12"/>
<stop offset="1" stop-color="#808080" stop-opacity="0.1"/>
</linearGradient>
<linearGradient id="paint15_linear" x1="27297.8" y1="11676.6" x2="27297.8" y2="10143.9" gradientUnits="userSpaceOnUse">
<stop stop-color="#808080" stop-opacity="0.25"/>
<stop offset="0.54" stop-color="#808080" stop-opacity="0.12"/>
<stop offset="1" stop-color="#808080" stop-opacity="0.1"/>
</linearGradient>
<linearGradient id="paint16_linear" x1="19806.3" y1="9391.17" x2="19806.3" y2="7858.84" gradientUnits="userSpaceOnUse">
<stop stop-color="#808080" stop-opacity="0.25"/>
<stop offset="0.54" stop-color="#808080" stop-opacity="0.12"/>
<stop offset="1" stop-color="#808080" stop-opacity="0.1"/>
</linearGradient>
<linearGradient id="paint17_linear" x1="10940.3" y1="9895.27" x2="10940.3" y2="8362.93" gradientUnits="userSpaceOnUse">
<stop stop-color="#808080" stop-opacity="0.25"/>
<stop offset="0.54" stop-color="#808080" stop-opacity="0.12"/>
<stop offset="1" stop-color="#808080" stop-opacity="0.1"/>
</linearGradient>
<linearGradient id="paint18_linear" x1="11774.4" y1="11676.6" x2="11774.4" y2="10143.9" gradientUnits="userSpaceOnUse">
<stop stop-color="#808080" stop-opacity="0.25"/>
<stop offset="0.54" stop-color="#808080" stop-opacity="0.12"/>
<stop offset="1" stop-color="#808080" stop-opacity="0.1"/>
</linearGradient>
<linearGradient id="paint19_linear" x1="18695.8" y1="11930.6" x2="18695.8" y2="10398.2" gradientUnits="userSpaceOnUse">
<stop stop-color="#808080" stop-opacity="0.25"/>
<stop offset="0.54" stop-color="#808080" stop-opacity="0.12"/>
<stop offset="1" stop-color="#808080" stop-opacity="0.1"/>
</linearGradient>
<linearGradient id="paint20_linear" x1="30908.2" y1="8857.98" x2="30908.2" y2="7325.64" gradientUnits="userSpaceOnUse">
<stop stop-color="#808080" stop-opacity="0.25"/>
<stop offset="0.54" stop-color="#808080" stop-opacity="0.12"/>
<stop offset="1" stop-color="#808080" stop-opacity="0.1"/>
</linearGradient>
<linearGradient id="paint21_linear" x1="32384.8" y1="11018.5" x2="32384.8" y2="9485.83" gradientUnits="userSpaceOnUse">
<stop stop-color="#808080" stop-opacity="0.25"/>
<stop offset="0.54" stop-color="#808080" stop-opacity="0.12"/>
<stop offset="1" stop-color="#808080" stop-opacity="0.1"/>
</linearGradient>
<linearGradient id="paint22_linear" x1="22971.9" y1="8634.85" x2="22971.9" y2="7102.18" gradientUnits="userSpaceOnUse">
<stop stop-color="#808080" stop-opacity="0.25"/>
<stop offset="0.54" stop-color="#808080" stop-opacity="0.12"/>
<stop offset="1" stop-color="#808080" stop-opacity="0.1"/>
</linearGradient>
<linearGradient id="paint23_linear" x1="25001.8" y1="13216.2" x2="25001.8" y2="11683.9" gradientUnits="userSpaceOnUse">
<stop stop-color="#808080" stop-opacity="0.25"/>
<stop offset="0.54" stop-color="#808080" stop-opacity="0.12"/>
<stop offset="1" stop-color="#808080" stop-opacity="0.1"/>
</linearGradient>
<linearGradient id="paint24_linear" x1="-74027.5" y1="383549" x2="-74027.5" y2="105614" gradientUnits="userSpaceOnUse">
<stop stop-color="#808080" stop-opacity="0.25"/>
<stop offset="0.54" stop-color="#808080" stop-opacity="0.12"/>
<stop offset="1" stop-color="#808080" stop-opacity="0.1"/>
</linearGradient>
<linearGradient id="paint25_linear" x1="-74027.5" y1="383549" x2="-74027.5" y2="105614" gradientUnits="userSpaceOnUse">
<stop stop-color="#808080" stop-opacity="0.25"/>
<stop offset="0.54" stop-color="#808080" stop-opacity="0.12"/>
<stop offset="1" stop-color="#808080" stop-opacity="0.1"/>
</linearGradient>
<clipPath id="clip0">
<rect width="1876" height="639" fill="white"/>
</clipPath>
<clipPath id="clip1">
<rect width="583.68" height="75.76" fill="white" transform="translate(25 30)"/>
</clipPath>
<clipPath id="clip2">
<rect width="904" height="643" fill="white" transform="translate(543)"/>
</clipPath>
</defs>
</svg>
